<svg width="32" height="32" viewBox="0 0 32 32" fill="none" xmlns="http://www.w3.org/2000/svg">
<path fill-rule="evenodd" clip-rule="evenodd" d="M12.5129 4.68481C13.642 4.22367 14.8511 3.99102 16.0704 4.00026C21.1786 4.0383 25.241 8.27552 25.241 13.3639V15.1111C25.241 19.1254 26.0806 21.3632 26.7477 22.5105L25.9492 22.9766L26.7466 22.5086C26.911 22.7899 26.9984 23.1098 27 23.4358C27.0015 23.7618 26.9172 24.0824 26.7554 24.3653C26.5936 24.6481 26.3602 24.8832 26.0787 25.0466C25.7972 25.2101 25.4777 25.2962 25.1523 25.2963H6.84782C6.52244 25.2962 6.20268 25.2101 5.92118 25.0466C5.63967 24.8831 5.40625 24.648 5.2445 24.3651C5.08275 24.0822 4.99842 23.7615 5.00002 23.4354C5.00163 23.11 5.08881 22.7907 5.25277 22.5098C5.92019 21.3623 6.75997 19.1247 6.75997 15.1111V13.2593C6.75997 12.0374 7.00131 10.8276 7.47008 9.69969C7.93885 8.57173 8.62578 7.5479 9.49127 6.6872C10.3568 5.82651 11.3837 5.14597 12.5129 4.68481ZM13.2104 6.3997C14.1138 6.03077 15.081 5.84465 16.0565 5.85206C20.1193 5.88225 23.3929 9.26235 23.3929 13.3639V15.1111C23.3929 19.3874 24.2891 21.9607 25.1508 23.4428L25.1518 23.4444H6.84819L6.84918 23.4427C7.7114 21.9606 8.60807 19.3873 8.60807 15.1111V13.2593C8.60807 12.2818 8.80114 11.314 9.17616 10.4116C9.55117 9.50924 10.1007 8.69017 10.7931 8.00161C11.4855 7.31306 12.307 6.76862 13.2104 6.3997Z" fill="black"/>
<path d="M12.2956 27.1481C11.7853 27.1481 11.3716 27.5627 11.3716 28.0741C11.3716 28.5854 11.7853 29 12.2956 29H19.688C20.1984 29 20.6121 28.5854 20.6121 28.0741C20.6121 27.5627 20.1984 27.1481 19.688 27.1481H12.2956Z" fill="black"/>
</svg>
