<svg width="32" height="32" viewBox="0 0 32 32" fill="none" xmlns="http://www.w3.org/2000/svg">
<path d="M26.7476 22.5105C26.0603 21.3283 25.241 19.0851 25.241 15.1111V13.3639C25.241 8.23833 21.1271 4.03776 16.0704 4.00023C16.0467 4.00012 16.0234 4 15.9998 4C13.5491 4.00016 11.1989 4.97576 9.46616 6.71219C7.73336 8.44862 6.75991 10.8037 6.75993 13.2593V15.1111C6.75993 19.0846 5.94022 21.328 5.2526 22.51C5.08847 22.7914 5.00134 23.1111 5.00002 23.437C4.99869 23.7629 5.08321 24.0833 5.24505 24.366C5.40688 24.6487 5.6403 24.8835 5.92171 25.0469C6.20313 25.2102 6.52258 25.2963 6.84781 25.2963H25.1522C25.4774 25.2963 25.7968 25.2103 26.0782 25.047C26.3596 24.8837 26.593 24.6489 26.7548 24.3662C26.9167 24.0836 27.0013 23.7632 27 23.4374C26.9987 23.1116 26.9117 22.7918 26.7476 22.5105Z" fill="black"/>
<path d="M19.688 27.1481H12.2955C12.0505 27.1481 11.8154 27.2457 11.6421 27.4193C11.4689 27.593 11.3715 27.8285 11.3715 28.0741C11.3715 28.3196 11.4689 28.5552 11.6421 28.7288C11.8154 28.9024 12.0505 29 12.2955 29H19.688C19.933 29 20.1681 28.9024 20.3414 28.7288C20.5147 28.5552 20.612 28.3196 20.612 28.0741C20.612 27.8285 20.5147 27.593 20.3414 27.4193C20.1681 27.2457 19.933 27.1481 19.688 27.1481Z" fill="black"/>
</svg>
