<svg width="32" height="32" viewBox="0 0 32 32" fill="none" xmlns="http://www.w3.org/2000/svg">
<path fill-rule="evenodd" clip-rule="evenodd" d="M12 4C11.4696 4 10.9609 4.21071 10.5858 4.58579C10.2107 4.96086 10 5.46957 10 6V8.00001H5.00098C3.89641 8.00001 3.00098 8.89544 3.00098 10V26C3.00098 27.1046 3.89641 28 5.00098 28H27.001C28.1055 28 29.001 27.1046 29.001 26V10C29.001 8.89544 28.1055 8.00001 27.001 8.00001H22V6C22 5.46957 21.7893 4.96086 21.4142 4.58579C21.0391 4.21071 20.5304 4 20 4H12ZM10 13V10H5.00098V26H27.001V10H22V13C22 13.5523 21.5523 14 21 14C20.4477 14 20 13.5523 20 13V10H12V13C12 13.5523 11.5523 14 11 14C10.4477 14 10 13.5523 10 13ZM12 8.00001H20V6H12V8.00001Z" fill="black"/>
</svg>
