<svg width="32" height="32" viewBox="0 0 32 32" fill="none" xmlns="http://www.w3.org/2000/svg">
<path d="M4.99927 2.99789C4.46883 2.99789 3.96013 3.20861 3.58505 3.58368C3.20998 3.95875 2.99927 4.46746 2.99927 4.99789V27.9979C2.99927 28.5502 3.44698 28.9979 3.99927 28.9979C4.55155 28.9979 4.99927 28.5502 4.99927 27.9979L4.99927 4.99789H16.9993V27.9979C16.9993 28.5502 17.447 28.9979 17.9993 28.9979C18.5516 28.9979 18.9993 28.5502 18.9993 27.9979V12.9979H26.9993V27.9979C26.9993 28.5502 27.447 28.9979 27.9993 28.9979C28.5516 28.9979 28.9993 28.5502 28.9993 27.9979V12.9979C28.9993 12.4675 28.7886 11.9588 28.4135 11.5837C28.0384 11.2086 27.5297 10.9979 26.9993 10.9979H18.9993V4.99789C18.9993 4.46746 18.7886 3.95875 18.4135 3.58368C18.0384 3.20861 17.5297 2.99789 16.9993 2.99789H4.99927Z" fill="black"/>
<path d="M7.99927 7.99789C7.44698 7.99789 6.99927 8.44561 6.99927 8.99789C6.99927 9.55018 7.44698 9.99789 7.99927 9.99789H11.9993C12.5516 9.99789 12.9993 9.55018 12.9993 8.99789C12.9993 8.44561 12.5516 7.99789 11.9993 7.99789H7.99927Z" fill="black"/>
<path d="M21.9993 15.9979C21.447 15.9979 20.9993 16.4456 20.9993 16.9979C20.9993 17.5502 21.447 17.9979 21.9993 17.9979H23.9993C24.5516 17.9979 24.9993 17.5502 24.9993 16.9979C24.9993 16.4456 24.5516 15.9979 23.9993 15.9979H21.9993Z" fill="black"/>
<path d="M9.99927 17.9979C9.44698 17.9979 8.99927 18.4456 8.99927 18.9979C8.99927 19.5502 9.44698 19.9979 9.99927 19.9979H13.9993C14.5516 19.9979 14.9993 19.5502 14.9993 18.9979C14.9993 18.4456 14.5516 17.9979 13.9993 17.9979H9.99927Z" fill="black"/>
<path d="M21.9993 20.9979C21.447 20.9979 20.9993 21.4456 20.9993 21.9979C20.9993 22.5502 21.447 22.9979 21.9993 22.9979H23.9993C24.5516 22.9979 24.9993 22.5502 24.9993 21.9979C24.9993 21.4456 24.5516 20.9979 23.9993 20.9979H21.9993Z" fill="black"/>
<path d="M7.99927 22.9979C7.44698 22.9979 6.99927 23.4456 6.99927 23.9979C6.99927 24.5502 7.44698 24.9979 7.99927 24.9979H11.9993C12.5516 24.9979 12.9993 24.5502 12.9993 23.9979C12.9993 23.4456 12.5516 22.9979 11.9993 22.9979H7.99927Z" fill="black"/>
</svg>
