<svg width="32" height="32" viewBox="0 0 32 32" fill="none" xmlns="http://www.w3.org/2000/svg">
<path d="M23.9993 20.9979H21.9993C21.7341 20.9979 21.4797 21.1033 21.2922 21.2908C21.1046 21.4784 20.9993 21.7327 20.9993 21.9979C20.9993 22.2631 21.1046 22.5175 21.2922 22.705C21.4797 22.8926 21.7341 22.9979 21.9993 22.9979H23.9993C24.2645 22.9979 24.5188 22.8926 24.7064 22.705C24.8939 22.5175 24.9993 22.2631 24.9993 21.9979C24.9993 21.7327 24.8939 21.4784 24.7064 21.2908C24.5188 21.1033 24.2645 20.9979 23.9993 20.9979Z" fill="black"/>
<path d="M23.9993 15.9979H21.9993C21.7341 15.9979 21.4797 16.1033 21.2922 16.2908C21.1046 16.4784 20.9993 16.7327 20.9993 16.9979C20.9993 17.2631 21.1046 17.5175 21.2922 17.705C21.4797 17.8926 21.7341 17.9979 21.9993 17.9979H23.9993C24.2645 17.9979 24.5188 17.8926 24.7064 17.705C24.8939 17.5175 24.9993 17.2631 24.9993 16.9979C24.9993 16.7327 24.8939 16.4784 24.7064 16.2908C24.5188 16.1033 24.2645 15.9979 23.9993 15.9979Z" fill="black"/>
<path d="M26.9993 10.9979H18.9993V4.99792C18.9987 4.46768 18.7878 3.95932 18.4128 3.58438C18.0379 3.20944 17.5295 2.99853 16.9993 2.99792H4.99927C4.46902 2.99853 3.96066 3.20944 3.58572 3.58438C3.21078 3.95932 2.99987 4.46768 2.99927 4.99792V27.9979C2.99927 28.2631 3.10463 28.5175 3.29216 28.705C3.4797 28.8926 3.73405 28.9979 3.99927 28.9979H17.9993C18.2645 28.9979 18.5188 28.8926 18.7064 28.705C18.8939 28.5175 18.9993 28.2631 18.9993 27.9979V12.9979H26.9993V27.9979C26.9993 28.2631 27.1046 28.5175 27.2922 28.705C27.4797 28.8926 27.7341 28.9979 27.9993 28.9979C28.2645 28.9979 28.5188 28.8926 28.7064 28.705C28.8939 28.5175 28.9993 28.2631 28.9993 27.9979V12.9979C28.9987 12.4677 28.7878 11.9593 28.4128 11.5844C28.0379 11.2094 27.5295 10.9985 26.9993 10.9979ZM7.99927 7.99792H11.9993C12.2645 7.99792 12.5188 8.10328 12.7064 8.29082C12.8939 8.47835 12.9993 8.73271 12.9993 8.99792C12.9993 9.26314 12.8939 9.5175 12.7064 9.70503C12.5188 9.89257 12.2645 9.99792 11.9993 9.99792H7.99927C7.73405 9.99792 7.4797 9.89257 7.29216 9.70503C7.10462 9.5175 6.99927 9.26314 6.99927 8.99792C6.99927 8.73271 7.10462 8.47835 7.29216 8.29082C7.4797 8.10328 7.73405 7.99792 7.99927 7.99792ZM11.9993 24.9979H7.99927C7.73405 24.9979 7.4797 24.8926 7.29216 24.705C7.10462 24.5175 6.99927 24.2631 6.99927 23.9979C6.99927 23.7327 7.10462 23.4784 7.29216 23.2908C7.4797 23.1033 7.73405 22.9979 7.99927 22.9979H11.9993C12.2645 22.9979 12.5188 23.1033 12.7064 23.2908C12.8939 23.4784 12.9993 23.7327 12.9993 23.9979C12.9993 24.2631 12.8939 24.5175 12.7064 24.705C12.5188 24.8926 12.2645 24.9979 11.9993 24.9979ZM13.9993 19.9979H9.99927C9.73405 19.9979 9.4797 19.8926 9.29216 19.705C9.10462 19.5175 8.99927 19.2631 8.99927 18.9979C8.99927 18.7327 9.10462 18.4784 9.29216 18.2908C9.4797 18.1033 9.73405 17.9979 9.99927 17.9979H13.9993C14.2645 17.9979 14.5188 18.1033 14.7064 18.2908C14.8939 18.4784 14.9993 18.7327 14.9993 18.9979C14.9993 19.2631 14.8939 19.5175 14.7064 19.705C14.5188 19.8926 14.2645 19.9979 13.9993 19.9979Z" fill="black"/>
</svg>
