<svg width="32" height="32" viewBox="0 0 32 32" fill="none" xmlns="http://www.w3.org/2000/svg">
<path fill-rule="evenodd" clip-rule="evenodd" d="M11 3C11 2.44772 10.5523 2 10 2C9.44772 2 9 2.44772 9 3V4H6C4.89543 4 4 4.89543 4 6V26C4 27.1046 4.89543 28 6 28H26C27.1046 28 28 27.1046 28 26V6C28 4.89543 27.1046 4 26 4H23V3C23 2.44772 22.5523 2 22 2C21.4477 2 21 2.44772 21 3V4H11V3ZM6 6H9V7C9 7.55228 9.44772 8 10 8C10.5523 8 11 7.55228 11 7V6H21V7C21 7.55228 21.4477 8 22 8C22.5523 8 23 7.55228 23 7V6H26V10H6V6ZM6 12H26V26H6V12Z" fill="black"/>
</svg>
