<svg width="34" height="34" viewBox="0 0 34 34" fill="none" xmlns="http://www.w3.org/2000/svg">
<path d="M17 0.75C13.7861 0.75 10.6443 1.70305 7.97199 3.48862C5.29969 5.27419 3.21689 7.81209 1.98696 10.7814C0.757041 13.7507 0.435237 17.018 1.06225 20.1702C1.68926 23.3224 3.23692 26.2179 5.50952 28.4905C7.78213 30.7631 10.6776 32.3108 13.8298 32.9378C16.982 33.5648 20.2493 33.243 23.2186 32.013C26.1879 30.7831 28.7258 28.7003 30.5114 26.028C32.297 23.3557 33.25 20.2139 33.25 17C33.245 12.6918 31.5314 8.5614 28.485 5.51501C25.4386 2.46863 21.3082 0.754979 17 0.75V0.75ZM24.7393 14.1545L15.5718 22.9045C15.3387 23.1263 15.0293 23.25 14.7075 23.25C14.3858 23.25 14.0764 23.1263 13.8433 22.9045L9.26075 18.5295C9.02134 18.3002 8.88275 17.9852 8.87541 17.6538C8.86807 17.3223 8.99259 17.0015 9.22161 16.7618C9.45064 16.5221 9.76544 16.3831 10.0969 16.3754C10.4283 16.3676 10.7493 16.4917 10.9893 16.7205L14.7075 20.2715L23.0107 12.3455C23.2507 12.1167 23.5717 11.9926 23.9031 12.0004C24.2346 12.0081 24.5494 12.1471 24.7784 12.3868C25.0074 12.6265 25.1319 12.9473 25.1246 13.2788C25.1173 13.6102 24.9787 13.9252 24.7393 14.1545V14.1545Z" fill="#E24343"/>
</svg>
