<svg width="32" height="32" viewBox="0 0 32 32" fill="none" xmlns="http://www.w3.org/2000/svg">
<path d="M8.99826 3.99925C8.44598 3.99925 7.99826 4.44696 7.99826 4.99925C7.99826 5.55153 8.44598 5.99925 8.99826 5.99925H22.9991C24.656 5.99925 25.9991 7.34239 25.9991 8.99925V22.9994C25.9991 23.5517 26.4468 23.9994 26.9991 23.9994C27.5514 23.9994 27.9991 23.5517 27.9991 22.9994V8.99925C27.9991 6.23782 25.7606 3.99925 22.9991 3.99925H8.99826Z" fill="black"/>
<path fill-rule="evenodd" clip-rule="evenodd" d="M6.99829 7.99939C5.34144 7.99939 3.99829 9.34254 3.99829 10.9994V24.9994C3.99829 26.6562 5.34144 27.9994 6.99829 27.9994H20.999C22.6559 27.9994 23.999 26.6562 23.999 24.9994V10.9994C23.999 9.34254 22.6559 7.99939 20.999 7.99939H6.99829ZM5.99829 10.9994C5.99829 10.4471 6.44601 9.99939 6.99829 9.99939H20.999C21.5513 9.99939 21.999 10.4471 21.999 10.9994V24.9994C21.999 25.5517 21.5513 25.9994 20.999 25.9994H6.99829C6.44601 25.9994 5.99829 25.5517 5.99829 24.9994V10.9994Z" fill="black"/>
</svg>
