<svg width="32" height="32" viewBox="0 0 32 32" fill="none" xmlns="http://www.w3.org/2000/svg">
<path d="M16.0001 17.5C16.8285 17.5 17.5001 16.8284 17.5001 16C17.5001 15.1716 16.8285 14.5 16.0001 14.5C15.1717 14.5 14.5001 15.1716 14.5001 16C14.5001 16.8284 15.1717 17.5 16.0001 17.5Z" fill="black"/>
<path d="M8.00012 17.5C8.82855 17.5 9.50012 16.8284 9.50012 16C9.50012 15.1716 8.82855 14.5 8.00012 14.5C7.17169 14.5 6.50012 15.1716 6.50012 16C6.50012 16.8284 7.17169 17.5 8.00012 17.5Z" fill="black"/>
<path d="M24.0001 17.5C24.8285 17.5 25.5001 16.8284 25.5001 16C25.5001 15.1716 24.8285 14.5 24.0001 14.5C23.1717 14.5 22.5001 15.1716 22.5001 16C22.5001 16.8284 23.1717 17.5 24.0001 17.5Z" fill="black"/>
</svg>
