<svg width="32" height="32" viewBox="0 0 32 32" fill="none" xmlns="http://www.w3.org/2000/svg">
<path fill-rule="evenodd" clip-rule="evenodd" d="M4 6C3.44772 6 3 6.44772 3 7V24C3 24.5304 3.21071 25.0391 3.58579 25.4142C3.96086 25.7893 4.46957 26 5 26H27C27.5304 26 28.0391 25.7893 28.4142 25.4142C28.7893 25.0391 29 24.5304 29 24V7C29 6.44772 28.5523 6 28 6H4ZM16 16.6434L6.5708 8H25.4292L16 16.6434ZM16.6757 18.7372L27 9.27323V24H5V9.27324L15.3243 18.7372C15.7066 19.0876 16.2934 19.0876 16.6757 18.7372Z" fill="black"/>
</svg>
