<svg width="32" height="32" viewBox="0 0 32 32" fill="none" xmlns="http://www.w3.org/2000/svg">
<path d="M28.9989 6.97617C28.9985 6.95767 28.9975 6.93921 28.9961 6.92078C28.9949 6.90573 28.9934 6.89079 28.9916 6.87595C28.9895 6.85867 28.9868 6.84149 28.9838 6.82434C28.981 6.80881 28.978 6.7934 28.9746 6.77814C28.9709 6.7619 28.9666 6.74582 28.9622 6.72974C28.9578 6.7143 28.9533 6.69895 28.9482 6.68381C28.9431 6.66812 28.9373 6.65265 28.9312 6.63721C28.9254 6.62235 28.9195 6.60761 28.913 6.59311C28.9062 6.57794 28.8989 6.56302 28.8914 6.54813C28.8841 6.53385 28.8767 6.51972 28.8688 6.50586C28.8607 6.4917 28.8522 6.47779 28.8433 6.46393C28.8343 6.44977 28.8251 6.43585 28.8154 6.42218C28.8063 6.40949 28.797 6.39703 28.7873 6.38464C28.7762 6.37058 28.7649 6.3569 28.7532 6.34345C28.7477 6.33716 28.743 6.33048 28.7373 6.32428C28.7325 6.31903 28.7272 6.31458 28.7223 6.30948C28.7102 6.29685 28.6977 6.28467 28.685 6.27268C28.6732 6.26157 28.6614 6.25058 28.6492 6.24014C28.6371 6.22986 28.6247 6.22015 28.6122 6.21045C28.5986 6.19982 28.585 6.1893 28.5709 6.17951C28.5586 6.17099 28.546 6.16309 28.5334 6.15512C28.5185 6.14572 28.5037 6.13635 28.4885 6.12781C28.4752 6.12033 28.4614 6.11359 28.4477 6.10669C28.4327 6.09921 28.4178 6.09168 28.4026 6.08496C28.3874 6.07828 28.3719 6.07245 28.3563 6.0665C28.342 6.06104 28.3276 6.05545 28.313 6.05066C28.2964 6.04517 28.2794 6.04056 28.2624 6.03595C28.2481 6.03208 28.2339 6.02814 28.2195 6.0249C28.2025 6.02112 28.1853 6.01813 28.168 6.0152C28.1527 6.0126 28.1375 6.01007 28.1221 6.00818C28.1057 6.00616 28.0892 6.00485 28.0726 6.00366C28.0558 6.00244 28.0389 6.00147 28.0221 6.0011C28.0147 6.00095 28.0075 6 28.0001 6H4.00012C3.99328 6 3.98669 6.00089 3.97985 6.00104C3.96166 6.0014 3.9436 6.00241 3.92547 6.00379C3.91003 6.00491 3.89471 6.00614 3.87951 6.00797C3.86291 6.00998 3.84643 6.0127 3.82995 6.01554C3.81384 6.01831 3.79772 6.02109 3.78185 6.0246C3.76635 6.02808 3.75109 6.03229 3.73571 6.0365C3.71972 6.04087 3.70373 6.0452 3.68804 6.05036C3.67254 6.05542 3.6574 6.06131 3.64214 6.06714C3.62743 6.07282 3.61266 6.07834 3.59826 6.08466C3.58238 6.09162 3.56683 6.09949 3.5512 6.10733C3.53808 6.11393 3.52495 6.1204 3.5122 6.12757C3.49652 6.13633 3.48126 6.14594 3.466 6.15561C3.45379 6.16333 3.44152 6.17099 3.42968 6.17926C3.41534 6.18924 3.40142 6.19995 3.38757 6.21079C3.37524 6.22034 3.36303 6.22989 3.35125 6.23999C3.33892 6.25052 3.32702 6.2616 3.31512 6.27283C3.30242 6.28476 3.29003 6.29688 3.27795 6.30946C3.27307 6.31458 3.26776 6.31904 3.26293 6.32429C3.25726 6.33048 3.25256 6.33716 3.24706 6.34345C3.23534 6.35691 3.22399 6.37058 3.21294 6.38465C3.20324 6.39704 3.1939 6.40949 3.18486 6.42219C3.17516 6.43586 3.16588 6.44978 3.15691 6.46394C3.14806 6.47779 3.13952 6.49171 3.13146 6.50587C3.12352 6.51972 3.11614 6.53385 3.10888 6.54814C3.10131 6.56303 3.09398 6.57795 3.08721 6.59312C3.08074 6.60762 3.07482 6.62235 3.06902 6.63722C3.06298 6.65266 3.05718 6.66813 3.05199 6.68382C3.04693 6.69895 3.04241 6.7143 3.03808 6.72975C3.03362 6.74583 3.02935 6.76191 3.02562 6.77815C3.02221 6.7934 3.01922 6.80882 3.01647 6.82435C3.01342 6.8415 3.01073 6.85868 3.00859 6.87596C3.00676 6.89082 3.00528 6.90576 3.00414 6.92078C3.00267 6.93925 3.00174 6.95771 3.00133 6.97618C3.00115 6.98418 3.00011 6.99195 3.00011 7.00001V24C3.00072 24.5302 3.21163 25.0386 3.58657 25.4135C3.96151 25.7885 4.46986 25.9994 5.00011 26H27.0001C27.5304 25.9994 28.0387 25.7885 28.4137 25.4135C28.7886 25.0386 28.9995 24.5302 29.0001 24V7C29.0001 6.99195 28.9991 6.98416 28.9989 6.97617ZM27.0001 24H5.00013V9.27332L15.3243 18.7372C15.5088 18.9062 15.7499 19 16.0001 19C16.2503 19 16.4914 18.9062 16.6759 18.7372L27.0003 9.27313L27.0013 23.9999L27.0001 24Z" fill="black"/>
</svg>
