<svg width="32" height="32" viewBox="0 0 32 32" fill="none" xmlns="http://www.w3.org/2000/svg">
<path fill-rule="evenodd" clip-rule="evenodd" d="M16.5547 3.16795C16.2188 2.94402 15.7812 2.94402 15.4453 3.16795L3.4453 11.1679C3.1671 11.3534 3 11.6656 3 12V25C3 25.5304 3.21071 26.0391 3.58579 26.4142C3.96086 26.7893 4.46957 27 5 27H27C27.5304 27 28.0391 26.7893 28.4142 26.4142C28.7893 26.0391 29 25.5304 29 25V12C29 11.6656 28.8329 11.3534 28.5547 11.1679L16.5547 3.16795ZM5 24.0045V13.9411L12.0903 18.9962L5 24.0045ZM7.05725 25L14.1357 20L17.8642 20L24.9429 25H7.05725ZM27 24.0045L19.9097 18.9962L27 13.9411V24.0045ZM16 5.20185L26.2387 12.0276L17.8618 18L14.1382 18L5.76133 12.0276L16 5.20185Z" fill="black"/>
</svg>
