<svg width="32" height="32" viewBox="0 0 32 32" fill="none" xmlns="http://www.w3.org/2000/svg">
<path fill-rule="evenodd" clip-rule="evenodd" d="M6.73994 4.32748C6.36843 3.91882 5.73598 3.88871 5.32733 4.26021C4.91867 4.63172 4.88855 5.26417 5.26006 5.67282L7.6635 8.31661C5.53395 9.62506 3.97649 11.2678 2.91982 12.6468C2.30016 13.4555 1.84711 14.1808 1.54697 14.7081C1.39675 14.9721 1.28438 15.1872 1.20822 15.3394C1.17012 15.4155 1.14105 15.4759 1.12078 15.5189C1.11065 15.5404 1.10272 15.5576 1.09696 15.5702L1.08994 15.5856L1.08765 15.5907L1.08681 15.5926C1.08681 15.5926 1.08617 15.5941 2 16.0002L1.08617 15.5941C0.971265 15.8526 0.971276 16.1478 1.0862 16.4063L2 16.0002C1.0862 16.4063 1.08662 16.4073 1.08662 16.4073L1.08713 16.4084L1.08843 16.4113L1.09215 16.4195L1.10412 16.4457C1.11413 16.4673 1.12819 16.4973 1.14638 16.5351C1.18275 16.6106 1.23565 16.7174 1.3056 16.8509C1.44542 17.1178 1.65382 17.4925 1.93504 17.9391C2.4965 18.8307 3.3539 20.0179 4.54293 21.2068C6.92619 23.5898 10.6656 25.998 15.9961 25.9992C18.2412 26.0165 20.461 25.5537 22.5078 24.6453L25.2601 27.6728C25.6316 28.0815 26.264 28.1116 26.6727 27.7401C27.0813 27.3686 27.1114 26.7361 26.7399 26.3275L23.5037 22.7676C23.4943 22.7568 23.4847 22.7462 23.4749 22.7359L20.1049 19.0289L20.1034 19.0273L13.3765 11.6277L13.3753 11.6263L10.0047 7.91875C9.99439 7.90681 9.98379 7.89516 9.97296 7.8838L6.73994 4.32748ZM4.50736 13.8632C5.51511 12.548 7.00419 11.0004 9.03621 9.82658L11.2805 12.2953C10.5164 13.2688 10.0667 14.4622 10.0071 15.7147C9.93146 17.3041 10.4903 18.8585 11.5607 20.0359C12.631 21.2133 14.1253 21.9173 15.7147 21.9931C16.9672 22.0528 18.1979 21.7185 19.2396 21.0504L21.0789 23.0736C19.4658 23.6975 17.7455 24.013 16.008 23.9992L16 23.9992C11.3325 23.9992 8.07323 21.9085 5.95707 19.7925C4.8961 18.7317 4.1285 17.6691 3.62746 16.8734C3.40469 16.5196 3.23576 16.2204 3.11811 16.0001C3.16541 15.9115 3.22103 15.8101 3.28514 15.6974C3.54797 15.2357 3.95172 14.5884 4.50736 13.8632ZM12.0048 15.8098C12.0391 15.0901 12.2665 14.3996 12.6549 13.8071L17.8653 19.5385C17.2385 19.8688 16.5296 20.0296 15.8099 19.9953C14.7503 19.9448 13.7541 19.4755 13.0405 18.6906C12.327 17.9056 11.9544 16.8694 12.0048 15.8098Z" fill="black"/>
<path fill-rule="evenodd" clip-rule="evenodd" d="M16.0008 5.99917C15.0797 5.99771 14.1601 6.07262 13.2513 6.22313C12.7065 6.31338 12.3379 6.82823 12.4282 7.37309C12.5184 7.91795 13.0333 8.28649 13.5781 8.19625C14.378 8.06376 15.1876 7.99785 15.9984 7.99917L16 7.99917C20.6674 7.99917 23.9267 10.0903 26.0429 12.2067C27.1038 13.2678 27.8714 14.3306 28.3725 15.1265C28.5953 15.4804 28.7642 15.7797 28.8819 16.0001C28.7391 16.2675 28.521 16.6506 28.2231 17.1063C27.618 18.0317 26.6915 19.244 25.409 20.3927C24.9976 20.7611 24.9628 21.3934 25.3313 21.8048C25.6998 22.2161 26.332 22.2509 26.7434 21.8825C28.1861 20.5903 29.2216 19.2338 29.897 18.2008C30.2354 17.6832 30.4855 17.2438 30.6528 16.9297C30.7365 16.7726 30.7996 16.6465 30.8428 16.5574C30.8645 16.5128 30.8811 16.4775 30.8929 16.4521L30.907 16.4215L30.9113 16.4119L30.9128 16.4086L30.9133 16.4074C30.9133 16.4074 30.9138 16.4063 30 16.0001L30.9138 16.4063C31.0287 16.1478 31.0287 15.8526 30.9138 15.594L30 16.0001C30.9138 15.594 30.9134 15.5931 30.9134 15.5931L30.9116 15.5891L30.9079 15.5808L30.8959 15.5547C30.8859 15.533 30.8718 15.5031 30.8537 15.4653C30.8173 15.3897 30.7644 15.283 30.6945 15.1494C30.5546 14.8825 30.3462 14.5077 30.065 14.061C29.5036 13.1692 28.6462 11.9817 27.4571 10.7926C25.0735 8.40864 21.333 5.99942 16.0008 5.99917Z" fill="black"/>
<path d="M17.1295 10.1066C16.5871 10.0024 16.063 10.3577 15.9589 10.9C15.8547 11.4424 16.21 11.9665 16.7523 12.0707C17.6026 12.234 18.3771 12.6685 18.9595 13.3092C19.5419 13.9499 19.9009 14.7621 19.9826 15.6241C20.0347 16.1739 20.5227 16.5774 21.0725 16.5253C21.6223 16.4731 22.0258 15.9852 21.9737 15.4353C21.8511 14.1427 21.3128 12.9247 20.4394 11.9639C19.566 11.0031 18.4046 10.3514 17.1295 10.1066Z" fill="black"/>
</svg>
