<svg width="20" height="20" viewBox="0 0 20 20" fill="none" xmlns="http://www.w3.org/2000/svg">
<path fill-rule="evenodd" clip-rule="evenodd" d="M10 1.875C5.51269 1.875 1.875 5.51269 1.875 10C1.875 14.4873 5.51269 18.125 10 18.125C14.4873 18.125 18.125 14.4873 18.125 10C18.125 5.51269 14.4873 1.875 10 1.875ZM3.125 10C3.125 6.20304 6.20304 3.125 10 3.125C13.797 3.125 16.875 6.20304 16.875 10C16.875 13.5863 14.1291 16.5312 10.625 16.847V11.8751H12.5C12.8452 11.8751 13.125 11.5953 13.125 11.2501C13.125 10.9049 12.8452 10.6251 12.5 10.6251H10.625V8.75007C10.625 8.41855 10.7567 8.10061 10.9911 7.86619C11.2255 7.63177 11.5435 7.50007 11.875 7.50007H13.125C13.4702 7.50007 13.75 7.22025 13.75 6.87507C13.75 6.5299 13.4702 6.25007 13.125 6.25007H11.875C11.212 6.25007 10.5761 6.51347 10.1072 6.98231C9.63839 7.45115 9.375 8.08703 9.375 8.75007V10.6251H7.5C7.15482 10.6251 6.875 10.9049 6.875 11.2501C6.875 11.5953 7.15482 11.8751 7.5 11.8751H9.375V16.847C5.87094 16.5312 3.125 13.5863 3.125 10Z" fill="#4D4D4D"/>
</svg>
