<svg width="32" height="32" viewBox="0 0 32 32" fill="none" xmlns="http://www.w3.org/2000/svg">
<path fill-rule="evenodd" clip-rule="evenodd" d="M6.99902 3C6.46859 3 5.95988 3.21071 5.58481 3.58579C5.20974 3.96086 4.99902 4.46957 4.99902 5V27C4.99902 27.5304 5.20974 28.0391 5.58481 28.4142C5.95988 28.7893 6.46859 29 6.99902 29H25C25.2626 29 25.5227 28.9483 25.7654 28.8478C26.008 28.7473 26.2285 28.5999 26.4142 28.4142C26.5999 28.2285 26.7473 28.008 26.8478 27.7654C26.9483 27.5227 27 27.2626 27 27V11C27 10.7348 26.8946 10.4804 26.7071 10.2929L19.7071 3.29289C19.5196 3.10536 19.2652 3 19 3H6.99902ZM6.99902 5L18 5V11C18 11.5523 18.4477 12 19 12H25V27L6.99902 27L6.99902 5ZM23.5858 10L20 6.41421V10H23.5858Z" fill="black"/>
</svg>
