<svg width="32" height="32" viewBox="0 0 32 32" fill="none" xmlns="http://www.w3.org/2000/svg">
<path fill-rule="evenodd" clip-rule="evenodd" d="M17 3L17.6139 2.21065C17.3615 2.01433 17.0304 1.95056 16.7232 2.03908C16.4159 2.1276 16.1695 2.35774 16.0602 2.65826L12.5274 12.3735L9.30804 9.89314C9.0857 9.72184 8.80161 9.65186 8.52514 9.7003C8.24868 9.74874 8.0053 9.91113 7.85444 10.1478C6.25854 12.6518 5 15.676 5 19C5 21.9174 6.15893 24.7153 8.22183 26.7782C10.2847 28.8411 13.0826 30 16 30C18.9174 30 21.7153 28.8411 23.7782 26.7782C25.8411 24.7153 27 21.9174 27 19C27 14.1752 24.5959 9.95829 22.2875 7.00869C21.1247 5.52293 19.9637 4.32983 19.0929 3.50736C18.6569 3.09558 18.2921 2.77525 18.034 2.55612C17.905 2.44652 17.8025 2.36213 17.731 2.30417C17.6953 2.27519 17.6673 2.2528 17.6476 2.23717L17.6243 2.21879L17.6175 2.21343L17.6153 2.21172L17.6139 2.21065C17.6136 2.21041 17.6139 2.21065 17 3ZM13.9398 14.3417L17.4442 4.7047C17.5319 4.78531 17.6238 4.87091 17.7196 4.96139C18.5363 5.73267 19.6253 6.85207 20.7125 8.24131C22.9041 11.0417 25 14.8248 25 19C25 21.3869 24.0518 23.6761 22.364 25.364C20.6761 27.0518 18.3869 28 16 28C13.6131 28 11.3239 27.0518 9.63604 25.364C7.94821 23.6761 7 21.3869 7 19C7 16.5578 7.80372 14.2403 8.9764 12.1624L12.3897 14.7922C12.6424 14.9868 12.9727 15.0493 13.279 14.9603C13.5853 14.8713 13.8308 14.6415 13.9398 14.3417Z" fill="black"/>
</svg>
