<svg width="32" height="32" viewBox="0 0 32 32" fill="none" xmlns="http://www.w3.org/2000/svg">
<path d="M29.1206 18.3779L28.0005 16.6973V15.3027L29.1196 13.624C29.285 13.3761 29.394 13.095 29.4389 12.8003C29.4838 12.5057 29.4635 12.2049 29.3794 11.9189C29.1173 11.0558 28.7719 10.2202 28.3481 9.42383C28.2067 9.16194 28.009 8.93466 27.7693 8.75837C27.5295 8.58207 27.2536 8.46115 26.9614 8.4043L24.979 8.00781L23.9927 7.02149L23.5962 5.03906C23.5394 4.74652 23.4183 4.47026 23.2416 4.23026C23.065 3.99026 22.8372 3.79253 22.5747 3.65137C21.7791 3.22846 20.9445 2.88343 20.0825 2.62109C19.7968 2.53564 19.4958 2.51453 19.201 2.55927C18.9061 2.60402 18.6249 2.71351 18.3774 2.87988L16.6977 4H15.3032L13.6226 2.87988C13.3756 2.71321 13.0947 2.60353 12.8001 2.55877C12.5056 2.51402 12.2047 2.5353 11.9194 2.62109C11.0563 2.88318 10.2206 3.22856 9.42431 3.65234C9.16205 3.79326 8.93448 3.99083 8.75812 4.2307C8.58177 4.47057 8.46106 4.74671 8.40478 5.03906L8.00829 7.02149L7.02197 8.00781L5.03759 8.4043C4.74537 8.46095 4.46942 8.58191 4.22974 8.75842C3.99006 8.93492 3.79266 9.16256 3.65185 9.42481C3.22857 10.2207 2.88321 11.0556 2.6206 11.918C2.53494 12.2035 2.51372 12.5044 2.55847 12.7991C2.60323 13.0938 2.71283 13.3749 2.87939 13.6221L4.00048 15.3027V16.6973L2.87841 18.3789C2.71219 18.6261 2.60285 18.907 2.55827 19.2015C2.51369 19.496 2.53498 19.7967 2.6206 20.082C2.88286 20.9439 3.22824 21.7782 3.65185 22.5732C3.79235 22.8361 3.98975 23.0643 4.22965 23.2412C4.46955 23.4181 4.74591 23.5392 5.03857 23.5957L7.02197 23.9922L8.00829 24.9785L8.40478 26.96C8.46045 27.2528 8.58089 27.5295 8.7573 27.7697C8.9337 28.01 9.1616 28.2078 9.42431 28.3486C10.2199 28.772 11.0549 29.1167 11.9175 29.3779C12.2028 29.4655 12.5042 29.4878 12.7994 29.4431C13.0945 29.3985 13.3758 29.2881 13.6226 29.1201L15.3032 28H16.6977L18.3774 29.1201C18.7107 29.3441 19.1028 29.4644 19.5044 29.4658C19.7003 29.4655 19.8951 29.4363 20.0825 29.3789C20.9443 29.1168 21.7786 28.7718 22.5737 28.3486C22.8367 28.2084 23.0649 28.011 23.2417 27.7711C23.4184 27.5311 23.5392 27.2546 23.5952 26.9619L23.9917 24.9785L24.979 23.9922L26.9624 23.5957C27.2547 23.5386 27.5307 23.4173 27.7705 23.2407C28.0102 23.064 28.2079 22.8364 28.3491 22.5742C28.7723 21.7788 29.1174 20.9441 29.3794 20.082C29.4635 19.7963 29.4839 19.4957 29.4392 19.2012C29.3945 18.9068 29.2857 18.6258 29.1206 18.3779ZM16.0001 22.0001C14.8134 22.0001 13.6534 21.6482 12.6667 20.9889C11.68 20.3297 10.911 19.3926 10.4568 18.2962C10.0027 17.1999 9.8839 15.9935 10.1154 14.8296C10.3469 13.6657 10.9184 12.5966 11.7575 11.7575C12.5966 10.9184 13.6657 10.3469 14.8296 10.1154C15.9935 9.8839 17.1999 10.0027 18.2962 10.4568C19.3926 10.911 20.3296 11.68 20.9889 12.6667C21.6482 13.6534 22.0001 14.8134 22.0001 16.0001C22.0001 17.5914 21.368 19.1175 20.2427 20.2428C19.1175 21.368 17.5914 22.0001 16.0001 22.0001Z" fill="black"/>
</svg>
