<svg width="32" height="32" viewBox="0 0 32 32" fill="none" xmlns="http://www.w3.org/2000/svg">
<path fill-rule="evenodd" clip-rule="evenodd" d="M16.0001 8.00006C11.5818 8.00006 8.00012 11.5818 8.00012 16.0001C8.00012 20.4183 11.5818 24.0001 16.0001 24.0001C20.4184 24.0001 24.0001 20.4183 24.0001 16.0001C24.0001 11.5818 20.4184 8.00006 16.0001 8.00006ZM10.0001 16.0001C10.0001 12.6864 12.6864 10.0001 16.0001 10.0001C19.3138 10.0001 22.0001 12.6864 22.0001 16.0001C22.0001 19.3138 19.3138 22.0001 16.0001 22.0001C12.6864 22.0001 10.0001 19.3138 10.0001 16.0001Z" fill="black"/>
<path fill-rule="evenodd" clip-rule="evenodd" d="M20.0712 2.61793C19.7861 2.53474 19.4862 2.51532 19.1928 2.56106C18.9004 2.60665 18.6216 2.71583 18.376 2.8809L18.3735 2.88261L16.6973 4H15.3029L13.6268 2.8826L13.6241 2.88084C13.3786 2.7158 13.0998 2.60664 12.8074 2.56106C12.514 2.51532 12.2141 2.53474 11.929 2.61793L11.9187 2.62102C11.0562 2.88289 10.2213 3.228 9.42573 3.65149L9.41517 3.6572C9.1546 3.79994 8.92875 3.99846 8.75377 4.23858C8.57965 4.47751 8.46017 4.75178 8.40375 5.04195L8.00786 7.02165L7.02177 8.00775L5.04206 8.40363C4.75189 8.46005 4.47763 8.57952 4.2387 8.75363C3.9986 8.9286 3.80008 9.15443 3.65734 9.41499L3.65165 9.42552C3.22808 10.2211 2.88291 11.0561 2.621 11.9185L2.61789 11.929C2.5347 12.214 2.5153 12.5139 2.56105 12.8073C2.60665 13.0997 2.71584 13.3786 2.88093 13.6242L2.88261 13.6267L4 15.3028V16.6972L2.88259 18.3734L2.88091 18.3759C2.71584 18.6215 2.60664 18.9003 2.56105 19.1927C2.51531 19.4861 2.53472 19.786 2.61791 20.0711L2.62099 20.0814C2.88283 20.9439 3.22796 21.7788 3.65149 22.5745L3.65721 22.5851C3.79996 22.8456 3.99846 23.0714 4.23856 23.2464C4.4775 23.4205 4.75176 23.54 5.04194 23.5964L5.04616 23.5972L7.02175 23.9924L8.00774 24.9784L8.40281 26.9539L8.40365 26.9583C8.46007 27.2484 8.57953 27.5226 8.75362 27.7615C8.92858 28.0016 9.15439 28.2002 9.41493 28.3429L9.4255 28.3486C10.2211 28.7722 11.056 29.1173 11.9185 29.3792L11.9289 29.3823C12.2139 29.4654 12.5138 29.4848 12.8072 29.4391C13.0997 29.3935 13.3785 29.2843 13.6242 29.1191L13.6265 29.1176L15.3028 28.0001H16.6972L18.3735 29.1176L18.376 29.1193C18.6216 29.2844 18.9004 29.3936 19.1928 29.4392C19.4862 29.4849 19.7861 29.4655 20.0712 29.3823L20.0816 29.3792C20.944 29.1174 21.7789 28.7723 22.5745 28.3488L22.5851 28.343C22.8456 28.2003 23.0714 28.0018 23.2464 27.7617C23.4204 27.5228 23.5399 27.2487 23.5963 26.9586L23.5972 26.9541L23.9924 24.9785L24.9784 23.9924L26.9539 23.5973L26.9583 23.5965C27.2484 23.5401 27.5226 23.4206 27.7615 23.2465C28.0016 23.0715 28.2002 22.8457 28.3429 22.5851L28.3486 22.5746C28.7721 21.7791 29.1173 20.9442 29.3792 20.0818L29.3823 20.0713C29.4655 19.7862 29.4849 19.4864 29.4392 19.1929C29.3936 18.9005 29.2843 18.6216 29.1192 18.3759L29.1176 18.3736L28.0001 16.6974V15.3029L29.1176 13.6267L29.1194 13.624C29.2845 13.3784 29.3936 13.0996 29.4392 12.8073C29.4849 12.5139 29.4655 12.214 29.3823 11.9289L29.3792 11.9185C29.1173 11.0561 28.7721 10.2212 28.3486 9.4256L28.3429 9.41508C28.2002 9.15455 28.0017 8.92873 27.7616 8.75377C27.5227 8.57966 27.2484 8.46018 26.9583 8.40376L26.954 8.40293L24.9785 8.00777L23.9925 7.02176L23.5973 5.04619L23.5965 5.0417C23.54 4.75161 23.4205 4.47743 23.2465 4.23856C23.0715 3.99846 22.8457 3.79995 22.5851 3.65721L22.5745 3.65151C21.7789 3.22801 20.944 2.88289 20.0816 2.62102L20.0712 2.61793ZM19.5009 4.53719C19.5038 4.53675 19.5067 4.53685 19.5095 4.53747C20.2413 4.76031 20.9499 5.05318 21.6255 5.41202C21.6273 5.41321 21.6289 5.41472 21.6301 5.41647C21.6317 5.41862 21.6328 5.42109 21.6333 5.4237L21.6347 5.43107L22.0907 7.7109C22.1294 7.90449 22.2246 8.08228 22.3642 8.22188L23.7784 9.63607C23.918 9.77566 24.0958 9.87082 24.2893 9.90954L26.5691 10.3655L26.5764 10.367C26.5791 10.3675 26.5815 10.3685 26.5837 10.3701C26.5854 10.3714 26.5869 10.373 26.5881 10.3748C26.947 11.0503 27.2399 11.7589 27.4628 12.4906C27.4634 12.4934 27.4635 12.4963 27.4631 12.4992C27.4625 12.5025 27.4613 12.5057 27.4594 12.5085L27.4565 12.5129L26.1681 14.4454C26.0586 14.6097 26.0001 14.8027 26.0001 15.0001V17.0001C26.0001 17.1976 26.0586 17.3906 26.1681 17.5548L27.4565 19.4874L27.4594 19.4918C27.4603 19.4931 27.461 19.4944 27.4616 19.4958C27.4623 19.4975 27.4628 19.4993 27.4631 19.5011C27.4635 19.5039 27.4634 19.5068 27.4628 19.5096C27.2399 20.2414 26.947 20.9499 26.5881 21.6255C26.5873 21.6267 26.5863 21.6279 26.5852 21.6289C26.5847 21.6293 26.5842 21.6297 26.5837 21.6301C26.5815 21.6317 26.5791 21.6328 26.5765 21.6333L26.5691 21.6347L24.2893 22.0906C24.0956 22.1293 23.9178 22.2245 23.7782 22.3641L22.364 23.7784C22.2244 23.918 22.1293 24.0958 22.0906 24.2894L21.6346 26.5692L21.6331 26.5766C21.6326 26.5792 21.6316 26.5817 21.63 26.5838C21.6287 26.5856 21.6271 26.5871 21.6253 26.5883C20.9498 26.9471 20.2412 27.24 19.5095 27.4628C19.5067 27.4634 19.5038 27.4635 19.5009 27.4631C19.4976 27.4625 19.4944 27.4613 19.4916 27.4594L17.5547 26.1681C17.3904 26.0586 17.1974 26.0001 17 26.0001H15C14.8026 26.0001 14.6096 26.0586 14.4453 26.1681L12.5127 27.4564L12.5084 27.4593C12.5056 27.4612 12.5024 27.4624 12.4991 27.463C12.4962 27.4634 12.4933 27.4633 12.4905 27.4627C11.7587 27.2399 11.0502 26.947 10.3747 26.5882C10.3729 26.587 10.3713 26.5855 10.37 26.5837C10.3693 26.5828 10.3687 26.5817 10.3682 26.5807C10.3676 26.5793 10.3671 26.5779 10.3669 26.5765L10.3654 26.5691L9.90954 24.2893C9.87082 24.0957 9.77567 23.9179 9.63606 23.7782L8.22187 22.3641C8.08227 22.2245 7.90448 22.1293 7.71089 22.0906L5.43104 21.6346L5.42367 21.6332C5.42105 21.6327 5.41858 21.6316 5.41643 21.63C5.41467 21.6287 5.41316 21.6271 5.41197 21.6253C5.05312 20.9498 4.76026 20.2412 4.53746 19.5094C4.53683 19.5066 4.53674 19.5037 4.53718 19.5008C4.5377 19.4975 4.53895 19.4943 4.54084 19.4915L5.83205 17.5547C5.94156 17.3904 6 17.1974 6 17V15C6 14.8026 5.94156 14.6096 5.83205 14.4453L4.54377 12.5129L4.54082 12.5085C4.53893 12.5057 4.53769 12.5025 4.53717 12.4992C4.53673 12.4963 4.53682 12.4934 4.53745 12.4906C4.76031 11.7588 5.05323 11.0502 5.41212 10.3747C5.41331 10.3729 5.41481 10.3713 5.41656 10.37C5.41871 10.3684 5.42117 10.3674 5.42378 10.3669L5.43115 10.3654L7.71086 9.90954C7.90446 9.87083 8.08226 9.77567 8.22187 9.63607L9.63618 8.22176C9.77579 8.08215 9.87095 7.90434 9.90966 7.71074L10.3655 5.43106L10.367 5.42369C10.3675 5.42108 10.3686 5.41861 10.3701 5.41646C10.3714 5.41471 10.373 5.4132 10.3748 5.41201C11.0504 5.05318 11.759 4.76031 12.4908 4.53747C12.4936 4.53685 12.4965 4.53675 12.4993 4.53719C12.5027 4.53771 12.5058 4.53896 12.5086 4.54084L12.513 4.54377L14.4454 5.83205C14.6097 5.94157 14.8027 6 15.0001 6H17.0001C17.1975 6 17.3906 5.94157 17.5548 5.83205L19.4872 4.54378L19.4916 4.54084C19.4944 4.53896 19.4976 4.53771 19.5009 4.53719Z" fill="black"/>
</svg>
