<svg width="32" height="32" viewBox="0 0 32 32" fill="none" xmlns="http://www.w3.org/2000/svg">
<path d="M7.51472 3.51391C7.90524 3.12338 7.90524 2.49022 7.51472 2.09969C7.12419 1.70917 6.49103 1.70917 6.1005 2.09969C3.475 4.7252 2 8.28616 2 11.9992C2 15.7122 3.475 19.2732 6.10051 21.8987C8.4893 24.2875 11.6525 25.7239 15 25.9635V27.9992H12C11.4477 27.9992 11 28.4469 11 28.9992C11 29.5515 11.4477 29.9992 12 29.9992H20C20.5523 29.9992 21 29.5515 21 28.9992C21 28.4469 20.5523 27.9992 20 27.9992H17V25.9635C20.3475 25.7239 23.5107 24.2875 25.8995 21.8987C26.29 21.5082 26.29 20.875 25.8995 20.4845C25.509 20.0939 24.8758 20.0939 24.4853 20.4845C22.2348 22.7349 19.1826 23.9992 16 23.9992C12.8174 23.9992 9.76516 22.7349 7.51472 20.4845C5.26428 18.234 4 15.1818 4 11.9992C4 8.81659 5.26428 5.76434 7.51472 3.51391Z" fill="black"/>
<path fill-rule="evenodd" clip-rule="evenodd" d="M16 1.99919C10.4772 1.99919 6 6.47634 6 11.9992C6 17.522 10.4772 21.9992 16 21.9992C21.5228 21.9992 26 17.522 26 11.9992C26 6.47634 21.5228 1.99919 16 1.99919ZM8 11.9992C8 7.58091 11.5817 3.99919 16 3.99919C20.4183 3.99919 24 7.58091 24 11.9992C24 16.4175 20.4183 19.9992 16 19.9992C11.5817 19.9992 8 16.4175 8 11.9992Z" fill="black"/>
</svg>
