<svg width="32" height="32" viewBox="0 0 32 32" fill="none" xmlns="http://www.w3.org/2000/svg">
<path d="M19 13C18.4477 13 18 13.4477 18 14C18 14.5523 18.4477 15 19 15H24C24.5523 15 25 14.5523 25 14C25 13.4477 24.5523 13 24 13H19Z" fill="black"/>
<path d="M19 17C18.4477 17 18 17.4477 18 18C18 18.5523 18.4477 19 19 19H24C24.5523 19 25 18.5523 25 18C25 17.4477 24.5523 17 24 17H19Z" fill="black"/>
<path fill-rule="evenodd" clip-rule="evenodd" d="M5 5.00001C3.89543 5.00001 3 5.89544 3 7.00001V25C3 26.1046 3.89543 27 5 27H27C28.1046 27 29 26.1046 29 25V7.00001C29 5.89544 28.1046 5.00001 27 5.00001H5ZM5 7.00001H27V25H5V7.00001Z" fill="black"/>
<path fill-rule="evenodd" clip-rule="evenodd" d="M15 14.5C15 15.3728 14.6805 16.1711 14.1521 16.7841C14.3314 16.9067 14.5019 17.0436 14.6619 17.1949C15.513 17.9997 16 19.1462 16 20.5C16 21.0523 15.5523 21.5 15 21.5C14.4477 21.5 14 21.0523 14 20.5C14 19.6447 13.7035 19.0412 13.2878 18.6482C12.8635 18.247 12.245 18 11.5 18C10.755 18 10.1365 18.247 9.71216 18.6482C9.2965 19.0412 9 19.6447 9 20.5C9 21.0523 8.55228 21.5 8 21.5C7.44772 21.5 7 21.0523 7 20.5C7 19.1462 7.487 17.9997 8.3381 17.1949C8.49814 17.0436 8.66862 16.9067 8.84794 16.7841C8.31951 16.1711 8 15.3728 8 14.5C8 12.567 9.567 11 11.5 11C13.433 11 15 12.567 15 14.5ZM10 14.5C10 13.6716 10.6716 13 11.5 13C12.3284 13 13 13.6716 13 14.5C13 15.3284 12.3284 16 11.5 16C10.6716 16 10 15.3284 10 14.5Z" fill="black"/>
</svg>
