<svg width="32" height="32" viewBox="0 0 32 32" fill="none" xmlns="http://www.w3.org/2000/svg">
<path d="M19.4999 14C20.3284 14 20.9999 13.3284 20.9999 12.5C20.9999 11.6716 20.3284 11 19.4999 11C18.6715 11 17.9999 11.6716 17.9999 12.5C17.9999 13.3284 18.6715 14 19.4999 14Z" fill="black"/>
<path d="M27.0001 5H5.00006C4.46981 5.00061 3.96146 5.21151 3.58652 5.58646C3.21158 5.9614 3.00067 6.46975 3.00006 7V24.9999C3.00067 25.5302 3.21158 26.0385 3.58652 26.4135C3.96146 26.7884 4.46981 26.9993 5.00006 26.9999H27.0001C27.5303 26.9993 28.0387 26.7884 28.4136 26.4135C28.7885 26.0385 28.9995 25.5302 29.0001 24.9999V7C28.9995 6.46975 28.7885 5.9614 28.4136 5.58646C28.0387 5.21152 27.5303 5.00061 27.0001 5ZM22.7071 16.2929C22.5195 16.1054 22.2652 16 21.9999 16C21.7347 16 21.4803 16.1054 21.2928 16.2929L17.9999 19.5858L11.7071 13.2929C11.5195 13.1054 11.2652 13 10.9999 13C10.7347 13 10.4803 13.1054 10.2928 13.2929L5.00006 18.5855V7H27.0001L27.001 20.5867L22.7071 16.2929Z" fill="black"/>
</svg>
