<svg width="32" height="32" viewBox="0 0 32 32" fill="none" xmlns="http://www.w3.org/2000/svg">
<path d="M19.4999 14C20.3284 14 20.9999 13.3284 20.9999 12.5C20.9999 11.6716 20.3284 11 19.4999 11C18.6715 11 17.9999 11.6716 17.9999 12.5C17.9999 13.3284 18.6715 14 19.4999 14Z" fill="black"/>
<path fill-rule="evenodd" clip-rule="evenodd" d="M5 5C3.89543 5 3 5.89543 3 7V25C3 26.1046 3.89543 27 5 27H27C28.1046 27 29 26.1046 29 25V7C29 5.89543 28.1046 5 27 5H5ZM5 25V21.4142L11 15.4142L17.2929 21.7071C17.6834 22.0976 18.3166 22.0976 18.7071 21.7071L22 18.4142L27 23.4142V25H5ZM27 7V20.5858L22.7071 16.2929C22.3166 15.9024 21.6834 15.9024 21.2929 16.2929L18 19.5858L11.7071 13.2929C11.3166 12.9024 10.6834 12.9024 10.2929 13.2929L5 18.5858V7H27Z" fill="black"/>
</svg>
