<svg width="32" height="32" viewBox="0 0 32 32" fill="none" xmlns="http://www.w3.org/2000/svg">
<path d="M16.0002 3C13.429 3 10.9156 3.76244 8.77778 5.1909C6.63994 6.61935 4.97369 8.64968 3.98976 11.0251C3.00582 13.4006 2.74837 16.0144 3.24998 18.5362C3.75159 21.0579 4.98972 23.3743 6.8078 25.1924C8.62588 27.0105 10.9423 28.2486 13.464 28.7502C15.9858 29.2518 18.5996 28.9944 20.9751 28.0104C23.3505 27.0265 25.3808 25.3603 26.8093 23.2224C28.2378 21.0846 29.0002 18.5712 29.0002 16C28.9962 12.5534 27.6253 9.24912 25.1882 6.81201C22.7511 4.3749 19.4468 3.00398 16.0002 3ZM16.0001 9C16.2967 9 16.5867 9.08797 16.8334 9.2528C17.0801 9.41762 17.2724 9.65189 17.3859 9.92597C17.4994 10.2001 17.5291 10.5017 17.4712 10.7926C17.4134 11.0836 17.2705 11.3509 17.0607 11.5607C16.8509 11.7704 16.5837 11.9133 16.2927 11.9712C16.0017 12.0291 15.7001 11.9994 15.426 11.8858C15.1519 11.7723 14.9177 11.58 14.7529 11.3334C14.588 11.0867 14.5001 10.7967 14.5001 10.5C14.5001 10.303 14.5389 10.108 14.6142 9.92597C14.6896 9.74399 14.8001 9.57863 14.9394 9.43934C15.0787 9.30005 15.2441 9.18956 15.426 9.11418C15.608 9.0388 15.8031 9 16.0001 9H16.0001ZM17.0002 23H16.0002C15.8688 23.0001 15.7388 22.9743 15.6174 22.924C15.4961 22.8738 15.3858 22.8001 15.2929 22.7073C15.2 22.6144 15.1264 22.5041 15.0762 22.3828C15.0259 22.2614 15.0001 22.1313 15.0002 22V16C14.735 16 14.4806 15.8946 14.2931 15.7071C14.1055 15.5196 14.0002 15.2652 14.0002 15C14.0002 14.7348 14.1055 14.4804 14.2931 14.2929C14.4806 14.1054 14.735 14 15.0002 14H16.0002C16.1315 13.9999 16.2616 14.0257 16.383 14.076C16.5043 14.1262 16.6146 14.1999 16.7075 14.2927C16.8003 14.3856 16.874 14.4959 16.9242 14.6172C16.9745 14.7386 17.0003 14.8687 17.0002 15V21C17.2654 21 17.5198 21.1054 17.7073 21.2929C17.8948 21.4804 18.0002 21.7348 18.0002 22C18.0002 22.2652 17.8948 22.5196 17.7073 22.7071C17.5198 22.8946 17.2654 23 17.0002 23Z" fill="black"/>
</svg>
