<svg width="32" height="32" viewBox="0 0 32 32" fill="none" xmlns="http://www.w3.org/2000/svg">
<path d="M16 12C16.8284 12 17.5 11.3284 17.5 10.5C17.5 9.67157 16.8284 9 16 9C15.1716 9 14.5 9.67157 14.5 10.5C14.5 11.3284 15.1716 12 16 12Z" fill="black"/>
<path d="M15 14C14.4477 14 14 14.4477 14 15C14 15.5523 14.4477 16 15 16V22C15 22.5523 15.4477 23 16 23H17C17.5523 23 18 22.5523 18 22C18 21.4477 17.5523 21 17 21V15C17 14.4477 16.5523 14 16 14H15Z" fill="black"/>
<path fill-rule="evenodd" clip-rule="evenodd" d="M16 3C8.8203 3 3 8.8203 3 16C3 23.1797 8.8203 29 16 29C23.1797 29 29 23.1797 29 16C29 8.8203 23.1797 3 16 3ZM5 16C5 9.92487 9.92487 5 16 5C22.0751 5 27 9.92487 27 16C27 22.0751 22.0751 27 16 27C9.92487 27 5 22.0751 5 16Z" fill="black"/>
</svg>
