<svg width="18" height="18" viewBox="0 0 18 18" fill="none" xmlns="http://www.w3.org/2000/svg">
<path fill-rule="evenodd" clip-rule="evenodd" d="M17.125 9C17.125 11.3944 16.0893 13.5469 14.4414 15.0339C14.4367 15.0383 14.4319 15.0426 14.427 15.0469C12.9883 16.3389 11.0859 17.125 9 17.125C6.91459 17.125 5.01267 16.3393 3.57411 15.0479C3.56848 15.043 3.56295 15.038 3.55752 15.0329C1.91027 13.5459 0.875 11.3939 0.875 9C0.875 4.51269 4.51269 0.875 9 0.875C13.4873 0.875 17.125 4.51269 17.125 9ZM2.125 9C2.125 5.20304 5.20304 2.125 9 2.125C12.797 2.125 15.875 5.20304 15.875 9C15.875 10.7528 15.2191 12.3523 14.1393 13.5666C13.647 12.856 13.0108 12.2526 12.2687 11.7975C11.9653 11.6114 11.6478 11.4524 11.32 11.3214C12.1909 10.6347 12.75 9.57013 12.75 8.375C12.75 6.30393 11.0711 4.625 9 4.625C6.92893 4.625 5.25 6.30393 5.25 8.375C5.25 9.57013 5.80908 10.6347 6.67998 11.3214C6.35215 11.4524 6.03471 11.6114 5.73132 11.7975C4.98918 12.2526 4.353 12.8561 3.8607 13.5666C2.78092 12.3523 2.125 10.7528 2.125 9ZM11.6152 12.8631C12.2618 13.2596 12.8079 13.7969 13.2142 14.4323C12.0503 15.3366 10.588 15.875 9 15.875C7.41197 15.875 5.9497 15.3366 4.78577 14.4323C5.19213 13.7969 5.73821 13.2596 6.38483 12.8631C7.17174 12.3804 8.07688 12.125 9 12.125C9.92312 12.125 10.8282 12.3804 11.6152 12.8631ZM11.5 8.375C11.5 9.75571 10.3807 10.875 9 10.875C7.61929 10.875 6.5 9.75571 6.5 8.375C6.5 6.99429 7.61929 5.875 9 5.875C10.3807 5.875 11.5 6.99429 11.5 8.375Z" fill="#1A1A1A"/>
</svg>
