<svg width="20" height="20" viewBox="0 0 20 20" fill="none" xmlns="http://www.w3.org/2000/svg">
<path d="M6.875 7.18757C7.39277 7.18757 7.8125 6.76784 7.8125 6.25007C7.8125 5.73231 7.39277 5.31257 6.875 5.31257C6.35723 5.31257 5.9375 5.73231 5.9375 6.25007C5.9375 6.76784 6.35723 7.18757 6.875 7.18757Z" fill="#4D4D4D"/>
<path d="M7.5 8.75007C7.5 8.40489 7.22018 8.12507 6.875 8.12507C6.52982 8.12507 6.25 8.40489 6.25 8.75007V13.7501C6.25 14.0952 6.52982 14.3751 6.875 14.3751C7.22018 14.3751 7.5 14.0952 7.5 13.7501V8.75007Z" fill="#4D4D4D"/>
<path d="M9.375 8.12507C9.67191 8.12507 9.92046 8.3321 9.98417 8.60968C10.4466 8.29614 10.9957 8.12507 11.5625 8.12507C12.3084 8.12507 13.0238 8.42139 13.5512 8.94883C14.0787 9.47628 14.375 10.1917 14.375 10.9376V13.7501C14.375 14.0952 14.0952 14.3751 13.75 14.3751C13.4048 14.3751 13.125 14.0952 13.125 13.7501V10.9376C13.125 10.5232 12.9604 10.1257 12.6674 9.83272C12.3743 9.53969 11.9769 9.37507 11.5625 9.37507C11.1481 9.37507 10.7507 9.53969 10.4576 9.83272C10.1646 10.1257 10 10.5232 10 10.9376V13.7501C10 14.0952 9.72018 14.3751 9.375 14.3751C9.02982 14.3751 8.75 14.0952 8.75 13.7501V8.75007C8.75 8.40489 9.02982 8.12507 9.375 8.12507Z" fill="#4D4D4D"/>
<path fill-rule="evenodd" clip-rule="evenodd" d="M3.75 2.5C3.05964 2.5 2.5 3.05964 2.5 3.75V16.25C2.5 16.9404 3.05964 17.5 3.75 17.5H16.25C16.9404 17.5 17.5 16.9404 17.5 16.25V3.75C17.5 3.05964 16.9404 2.5 16.25 2.5H3.75ZM3.75 3.75H16.25V16.25H3.75V3.75Z" fill="#4D4D4D"/>
</svg>
