<svg width="32" height="32" viewBox="0 0 32 32" fill="none" xmlns="http://www.w3.org/2000/svg">
<path d="M25.9993 10H21.4993V6.5C21.4993 5.04131 20.9199 3.64236 19.8884 2.61091C18.857 1.57946 17.458 1 15.9993 1C14.5406 1 13.1417 1.57946 12.1102 2.61091C11.0788 3.64236 10.4993 5.04131 10.4993 6.5V10H5.99933C5.46908 10.0006 4.96073 10.2115 4.58578 10.5865C4.21084 10.9614 3.99994 11.4698 3.99933 12V26C3.99994 26.5302 4.21084 27.0386 4.58578 27.4135C4.96073 27.7885 5.46908 27.9994 5.99933 28H25.9993C26.5296 27.9994 27.0379 27.7885 27.4129 27.4135C27.7878 27.0386 27.9987 26.5302 27.9993 26V12C27.9987 11.4698 27.7878 10.9614 27.4129 10.5865C27.0379 10.2115 26.5296 10.0006 25.9993 10ZM12.4993 6.5C12.4993 5.57174 12.8681 4.6815 13.5245 4.02513C14.1808 3.36875 15.0711 3 15.9993 3C16.9276 3 17.8178 3.36875 18.4742 4.02513C19.1306 4.6815 19.4993 5.57174 19.4993 6.5V10H12.4993V6.5Z" fill="black"/>
</svg>
