<svg width="32" height="32" viewBox="0 0 32 32" fill="none" xmlns="http://www.w3.org/2000/svg">
<path fill-rule="evenodd" clip-rule="evenodd" d="M26 14.5C26 17.3158 24.988 19.8953 23.3078 21.8945L28.7064 27.293C29.0969 27.6835 29.0969 28.3167 28.7064 28.7072C28.3158 29.0978 27.6827 29.0978 27.2922 28.7072L21.8935 23.3086C19.8945 24.9883 17.3154 26 14.5 26C8.14873 26 3 20.8513 3 14.5C3 8.14873 8.14873 3 14.5 3C20.8513 3 26 8.14873 26 14.5ZM5 14.5C5 9.25329 9.25329 5 14.5 5C19.7467 5 24 9.25329 24 14.5C24 17.1223 22.9375 19.4964 21.2196 21.2154L21.2171 21.2179C19.498 22.9365 17.1228 24 14.5 24C9.25329 24 5 19.7467 5 14.5Z" fill="black"/>
</svg>
