<svg width="32" height="32" viewBox="0 0 32 32" fill="none" xmlns="http://www.w3.org/2000/svg">
<path fill-rule="evenodd" clip-rule="evenodd" d="M16 8C13.2386 8 11 10.2386 11 13C11 15.7614 13.2386 18 16 18C18.7614 18 21 15.7614 21 13C21 10.2386 18.7614 8 16 8ZM13 13C13 11.3431 14.3431 10 16 10C17.6569 10 19 11.3431 19 13C19 14.6569 17.6569 16 16 16C14.3431 16 13 14.6569 13 13Z" fill="black"/>
<path fill-rule="evenodd" clip-rule="evenodd" d="M15.4259 29.8188C15.4263 29.819 15.4265 29.8192 16 29L15.4259 29.8188C15.7703 30.0598 16.2291 30.0603 16.5735 29.8192L16 29C16.5735 29.8192 16.5731 29.8195 16.5735 29.8192L16.5749 29.8182L16.5772 29.8166L16.5846 29.8114L16.61 29.7933C16.6317 29.7778 16.6625 29.7557 16.7019 29.7269C16.7808 29.6693 16.8941 29.5853 17.0369 29.4762C17.3225 29.2579 17.7268 28.9384 18.2101 28.5276C19.1755 27.707 20.4638 26.5156 21.7546 25.0312C24.3118 22.0904 27 17.8601 27 13C27 10.0826 25.8411 7.28473 23.7782 5.22183C21.7153 3.15893 18.9174 2 16 2C13.0826 2 10.2847 3.15893 8.22183 5.22183C6.15893 7.28473 5 10.0826 5 13C5 17.8601 7.68815 22.0904 10.2454 25.0312C11.5362 26.5156 12.8245 27.707 13.7899 28.5276C14.2732 28.9384 14.6775 29.2579 14.9631 29.4762C15.1059 29.5853 15.2192 29.6693 15.2981 29.7269C15.3375 29.7557 15.3683 29.7778 15.39 29.7933L15.4154 29.8114L15.4228 29.8166L15.4251 29.8182L15.4259 29.8188ZM9.63604 6.63604C11.3239 4.94821 13.6131 4 16 4C18.3869 4 20.6761 4.94821 22.364 6.63604C24.0518 8.32387 25 10.6131 25 13C25 17.1399 22.6882 20.9096 20.2454 23.7188C19.0362 25.1094 17.8245 26.2305 16.9149 27.0037C16.5551 27.3095 16.2438 27.5599 16 27.75C15.7562 27.5599 15.4449 27.3095 15.0851 27.0037C14.1755 26.2305 12.9638 25.1094 11.7546 23.7188C9.31185 20.9096 7 17.1399 7 13C7 10.6131 7.94821 8.32387 9.63604 6.63604Z" fill="black"/>
</svg>
