<svg width="32" height="32" viewBox="0 0 32 32" fill="none" xmlns="http://www.w3.org/2000/svg">
<path fill-rule="evenodd" clip-rule="evenodd" d="M15.9993 5C12.1333 5 8.99927 8.13401 8.99927 12C8.99927 15.866 12.1333 19 15.9993 19C19.8653 19 22.9993 15.866 22.9993 12C22.9993 8.13401 19.8653 5 15.9993 5ZM10.9993 12C10.9993 9.23858 13.2378 7 15.9993 7C18.7607 7 20.9993 9.23858 20.9993 12C20.9993 14.7614 18.7607 17 15.9993 17C13.2378 17 10.9993 14.7614 10.9993 12Z" fill="black"/>
<path fill-rule="evenodd" clip-rule="evenodd" d="M26.9993 12C26.9993 15.4155 25.4426 18.4675 23 20.4851V30C23 30.3466 22.8206 30.6684 22.5258 30.8506C22.231 31.0328 21.8628 31.0494 21.5528 30.8945L15.9992 28.118L10.4473 30.8944C10.1373 31.0494 9.76912 31.0329 9.47429 30.8507C9.17946 30.6685 9 30.3466 9 30V20.4863C6.55657 18.4687 4.99927 15.4162 4.99927 12C4.99927 5.92487 9.92414 1 15.9993 1C22.0744 1 26.9993 5.92487 26.9993 12ZM6.99927 12C6.99927 7.02944 11.0287 3 15.9993 3C20.9698 3 24.9993 7.02944 24.9993 12C24.9993 14.9318 23.5975 17.5361 21.4275 19.1793C21.4089 19.1924 21.3906 19.2061 21.3729 19.2204C19.8733 20.3383 18.0135 21 15.9993 21C13.9871 21 12.1292 20.3397 10.6304 19.2239C10.6105 19.2077 10.5899 19.1923 10.5687 19.1776C8.40008 17.5343 6.99927 14.9307 6.99927 12ZM15.9993 23C17.8 23 19.4997 22.5673 21 21.8002V28.3821L16.4463 26.1055C16.1648 25.9648 15.8334 25.9648 15.5519 26.1056L11 28.3819V21.801C12.5 22.5676 14.1991 23 15.9993 23Z" fill="black"/>
</svg>
