<svg width="32" height="32" viewBox="0 0 32 32" fill="none" xmlns="http://www.w3.org/2000/svg">
<path d="M3 14.6773C3.00182 13.0935 3.63454 11.575 4.75936 10.4551C5.88418 9.33516 7.40923 8.70518 8.99996 8.70337H13.9979C14.0627 8.70313 20.5454 8.61756 26.7136 3.4667C27.0051 3.22283 27.3605 3.06688 27.7379 3.01719C28.1154 2.96749 28.4992 3.02611 28.8444 3.18615C29.1895 3.3462 29.4816 3.60101 29.6863 3.92066C29.891 4.2403 29.9998 4.61148 30 4.99057V24.364C30.0023 24.7433 29.8947 25.1152 29.6901 25.4351C29.4854 25.755 29.1925 26.0093 28.8463 26.1676C28.5801 26.2921 28.2896 26.3569 27.9955 26.3574C27.526 26.3565 27.0719 26.1902 26.7137 25.888C21.9791 21.9342 17.0595 20.965 14.9999 20.7279V25.0967C15.0003 25.4246 14.9192 25.7475 14.7638 26.0365C14.6085 26.3256 14.3836 26.572 14.1094 26.7535L12.7353 27.6657C12.4686 27.8426 12.1631 27.9532 11.8446 27.9881C11.526 28.0229 11.2037 27.9811 10.9048 27.866C10.6059 27.7509 10.3391 27.566 10.127 27.3269C9.91482 27.0877 9.7635 26.8013 9.68575 26.4917L8.20572 20.5973C6.76572 20.4041 5.44482 19.6979 4.48768 18.6094C3.53053 17.521 3.00201 16.124 3 14.6773ZM11.626 26.0087L12.9999 25.0967V20.6512H10.2807L11.626 26.0087ZM8.99996 18.6599H12.9999V10.6947H8.99996C7.9391 10.6947 6.9217 11.1143 6.17155 11.8612C5.42141 12.6081 4.99999 13.621 4.99999 14.6773C4.99999 15.7336 5.42141 16.7466 6.17155 17.4934C6.9217 18.2403 7.9391 18.6599 8.99996 18.6599Z" fill="black"/>
</svg>
