<svg width="32" height="32" viewBox="0 0 32 32" fill="none" xmlns="http://www.w3.org/2000/svg">
<path fill-rule="evenodd" clip-rule="evenodd" d="M4.75736 18.9015C5.69377 19.8339 6.90783 20.4262 8.20604 20.5987L9.6857 26.4917C9.76343 26.8012 9.91474 27.0877 10.1269 27.3269C10.3391 27.566 10.6059 27.751 10.9048 27.866C11.2037 27.9811 11.5261 28.023 11.8446 27.9881C12.1632 27.9532 12.4687 27.8426 12.7354 27.6656L14.1094 26.7535C14.3834 26.5717 14.608 26.3253 14.7633 26.0363C14.9187 25.7472 15 25.4245 15 25.0967V20.7243L15.0507 20.7301C15.7481 20.8106 16.7536 20.9729 17.9591 21.2999C20.3702 21.954 23.5709 23.2637 26.7131 25.8875C27.0044 26.1313 27.3594 26.2874 27.7367 26.3373C28.1142 26.3873 28.4982 26.3289 28.8435 26.169C29.1888 26.0091 29.4811 25.7543 29.686 25.4347C29.8909 25.115 29.9998 24.7438 30 24.3646V4.99059C29.9998 4.61141 29.8909 4.23965 29.686 3.92C29.4811 3.60035 29.1888 3.3456 28.8435 3.1857C28.4982 3.0258 28.1142 2.9674 27.7367 3.01736C27.3597 3.06725 27.0049 3.22311 26.7138 3.46665C23.5713 6.09076 20.3703 7.40065 17.9591 8.05475C16.7536 8.38177 15.7481 8.5441 15.0507 8.62459C14.7022 8.66482 14.4312 8.68453 14.2514 8.69419C14.1615 8.69902 14.0945 8.70133 14.052 8.70243C14.0307 8.70298 14.0156 8.70323 14.0069 8.70334L13.9986 8.70343L9 8.70343C7.4087 8.70343 5.88258 9.33282 4.75736 10.4531C3.63214 11.5735 3 13.093 3 14.6773C3 16.2617 3.63214 17.7812 4.75736 18.9015ZM28 24.3632V4.99153L27.999 4.99237C24.5915 7.83783 21.1143 9.26273 18.4848 9.97602C17.17 10.3327 16.0645 10.5122 15.281 10.6026C15.1822 10.6141 15.0884 10.624 15 10.6328V18.7219C15.0884 18.7306 15.1822 18.7406 15.281 18.752C16.0645 18.8425 17.17 19.022 18.4848 19.3787C21.1143 20.092 24.5915 21.5169 27.999 24.3623L28 24.3632ZM9 10.6947L13 10.6947V18.66L9 18.66C7.93913 18.66 6.92172 18.2404 6.17157 17.4935C5.42143 16.7466 5 15.7336 5 14.6773C5 13.6211 5.42143 12.6081 6.17157 11.8612C6.92172 11.1143 7.93913 10.6947 9 10.6947ZM10.2808 20.6513L13 20.6513V25.0967L11.626 26.0087L10.2808 20.6513Z" fill="black"/>
</svg>
