<svg width="32" height="32" viewBox="0 0 32 32" fill="none" xmlns="http://www.w3.org/2000/svg">
<path fill-rule="evenodd" clip-rule="evenodd" d="M24.7071 3.29289C24.3166 2.90237 23.6834 2.90237 23.2929 3.29289L11.2929 15.2929C11.1054 15.4804 11 15.7348 11 16V20C11 20.5523 11.4477 21 12 21H16C16.2652 21 16.5196 20.8946 16.7071 20.7071L28.7071 8.70711C29.0976 8.31658 29.0976 7.68342 28.7071 7.29289L24.7071 3.29289ZM13 19V16.4142L21 8.41421L23.5858 11L15.5858 19H13ZM22.4142 7L25 9.58579L26.5858 8L24 5.41421L22.4142 7Z" fill="black"/>
<path d="M6 4C5.46957 4 4.96086 4.21071 4.58579 4.58579C4.21071 4.96086 4 5.46957 4 6V26C4 26.5304 4.21071 27.0391 4.58579 27.4142C4.96086 27.7893 5.46957 28 6 28H26C26.5304 28 27.0391 27.7893 27.4142 27.4142C27.7893 27.0391 28 26.5304 28 26V15C28 14.4477 27.5523 14 27 14C26.4477 14 26 14.4477 26 15V26H6L6 6L17 6C17.5523 6 18 5.55228 18 5C18 4.44772 17.5523 4 17 4H6Z" fill="black"/>
</svg>
