<svg width="32" height="32" viewBox="0 0 32 32" fill="none" xmlns="http://www.w3.org/2000/svg">
<path d="M12 11C11.4477 11 11 11.4477 11 12C11 12.5523 11.4477 13 12 13H20C20.5523 13 21 12.5523 21 12C21 11.4477 20.5523 11 20 11H12Z" fill="black"/>
<path d="M12 15C11.4477 15 11 15.4477 11 16C11 16.5523 11.4477 17 12 17H20C20.5523 17 21 16.5523 21 16C21 15.4477 20.5523 15 20 15H12Z" fill="black"/>
<path d="M12 19C11.4477 19 11 19.4477 11 20C11 20.5523 11.4477 21 12 21H16C16.5523 21 17 20.5523 17 20C17 19.4477 16.5523 19 16 19H12Z" fill="black"/>
<path fill-rule="evenodd" clip-rule="evenodd" d="M6 4C5.46957 4 4.96086 4.21071 4.58579 4.58579C4.21071 4.96086 4 5.46957 4 6V26C4 26.5304 4.21071 27.0391 4.58579 27.4142C4.96086 27.7893 5.46957 28 6 28H19.5858C19.8484 28 20.1085 27.9483 20.3512 27.8478C20.5938 27.7472 20.8143 27.5999 21 27.4142L27.4142 21C27.5999 20.8143 27.7472 20.5938 27.8478 20.3512C27.9483 20.1085 28 19.8484 28 19.5858V6C28 5.46957 27.7893 4.96086 27.4142 4.58579C27.0391 4.21071 26.5304 4 26 4H6ZM6 6L26 6V18.999H20C19.4477 18.999 19 19.4467 19 19.999V26H6L6 6ZM21 20.999H24.5868L21 24.5858V20.999Z" fill="black"/>
</svg>
