<svg width="32" height="32" viewBox="0 0 32 32" fill="none" xmlns="http://www.w3.org/2000/svg">
<path d="M27.9305 14.2549L6.81616 2.43092C6.4609 2.23199 6.05338 2.14623 5.64807 2.1851C5.24275 2.22397 4.85896 2.38562 4.54798 2.64845C4.237 2.91127 4.01364 3.26275 3.90776 3.65592C3.80187 4.04908 3.81851 4.46519 3.95544 4.84865L7.58093 15H17C17.2652 15 17.5196 15.1054 17.7071 15.2929C17.8946 15.4804 18 15.7348 18 16C18 16.2652 17.8946 16.5196 17.7071 16.7071C17.5196 16.8947 17.2652 17 17 17H7.58093L3.95544 27.1514C3.84826 27.4531 3.81492 27.7762 3.8582 28.0935C3.90149 28.4107 4.02014 28.7131 4.20423 28.9751C4.38832 29.2371 4.6325 29.4512 4.91632 29.5995C5.20014 29.7478 5.51535 29.8259 5.83557 29.8274C6.17921 29.8268 6.51692 29.7378 6.81628 29.5691L27.9304 17.7451C28.2406 17.5714 28.4989 17.3181 28.6787 17.0114C28.8585 16.7047 28.9532 16.3556 28.9532 16C28.9533 15.6445 28.8585 15.2954 28.6788 14.9887C28.499 14.6819 28.2407 14.4286 27.9305 14.2549Z" fill="black"/>
</svg>
