<svg width="32" height="32" viewBox="0 0 32 32" fill="none" xmlns="http://www.w3.org/2000/svg">
<path fill-rule="evenodd" clip-rule="evenodd" d="M6.97677 2.26066C6.62114 2.05777 6.2114 1.96946 5.80286 2.00937C5.39439 2.04927 5.00991 2.21508 4.70028 2.48167C4.3909 2.74805 4.17122 3.10196 4.06744 3.49457C3.96369 3.88705 3.97992 4.30222 4.11428 4.6855L8.01667 15.8172C8.00572 15.8765 8 15.9376 8 16C8 16.0624 8.00572 16.1235 8.01667 16.1828L4.11428 27.3145C3.97991 27.6978 3.96369 28.113 4.06744 28.5054C4.17121 28.898 4.39089 29.252 4.70028 29.5183C5.00991 29.7849 5.3944 29.9507 5.80287 29.9906C6.21141 30.0305 6.62114 29.9422 6.97677 29.7393L27.9867 17.7531C28.297 17.576 28.553 17.3193 28.7302 17.0113C28.9073 16.7034 29 16.3544 29 16C29 15.6456 28.9073 15.2966 28.7302 14.9887C28.553 14.6807 28.297 14.424 27.9867 14.2469L6.97677 2.26066ZM17 17H9.84953L6.00166 27.9762C5.99984 27.9814 5.99945 27.9877 6.00083 27.9935L26.995 16.0163C26.9951 16.0161 26.9954 16.0158 26.9957 16.0153C26.996 16.015 26.9963 16.0145 26.9966 16.0139C26.9984 16.0109 27 16.006 27 16C27 15.994 26.9984 15.9891 26.9966 15.9861C26.9959 15.9848 26.9952 15.9841 26.995 15.9837L6.00083 4.00646C5.99945 4.01233 5.99984 4.01864 6.00166 4.02385L9.84953 15H17C17.5523 15 18 15.4477 18 16C18 16.5523 17.5523 17 17 17Z" fill="black"/>
</svg>
