<svg width="32" height="32" viewBox="0 0 32 32" fill="none" xmlns="http://www.w3.org/2000/svg">
<path d="M6.78477 15.2395C6.39425 15.6301 6.39425 16.2632 6.78477 16.6537C7.1753 17.0443 7.80846 17.0443 8.19899 16.6537L18.0985 6.75425C19.0362 5.81657 20.3079 5.28979 21.634 5.28979C22.9601 5.28979 24.2319 5.81657 25.1695 6.75425C26.1072 7.69194 26.634 8.96371 26.634 10.2898C26.634 11.6159 26.1072 12.8876 25.1695 13.8253L12.2654 26.7295C11.1487 27.8462 9.28055 27.8482 8.09228 26.66C6.90401 25.4717 6.90606 23.6035 8.02273 22.4869L20.7506 9.75894C20.9382 9.57141 21.1925 9.46605 21.4577 9.46605C21.7229 9.46605 21.9773 9.57141 22.1648 9.75894C22.3524 9.94647 22.4577 10.2008 22.4577 10.466C22.4577 10.7312 22.3524 10.9856 22.1648 11.1731L12.2653 21.0726C11.8748 21.4631 11.8748 22.0963 12.2653 22.4868C12.6559 22.8774 13.289 22.8774 13.6796 22.4868L23.579 12.5873C24.1417 12.0247 24.4577 11.2617 24.4577 10.466C24.4577 9.67039 24.1417 8.90733 23.579 8.34473C23.0164 7.78212 22.2534 7.46605 21.4577 7.46605C20.6621 7.46605 19.899 7.78212 19.3364 8.34473L6.60851 21.0726C4.67781 23.0034 4.74214 26.1382 6.67807 28.0742C8.61399 30.0101 11.7489 30.0744 13.6796 28.1437L26.5838 15.2395C27.8965 13.9268 28.634 12.1463 28.634 10.2898C28.634 8.43327 27.8965 6.6528 26.5838 5.34004C25.271 4.02729 23.4905 3.28979 21.634 3.28979C19.7775 3.28979 17.997 4.02729 16.6843 5.34004L6.78477 15.2395Z" fill="black"/>
</svg>
