<svg width="32" height="32" viewBox="0 0 32 32" fill="none" xmlns="http://www.w3.org/2000/svg">
<path fill-rule="evenodd" clip-rule="evenodd" d="M9.00855 3.51402C9.37841 3.18237 9.85778 3 10.3533 3H21.6467C22.1422 3 22.6216 3.18237 22.9914 3.51402C23.3616 3.8459 23.5957 4.30393 23.6458 4.80004L24.9986 18.2008C26.5204 19.222 27.5828 20.7929 27.9563 22.5814C28.0184 22.8731 28.0143 23.1749 27.9442 23.4648C27.874 23.7557 27.7394 24.0266 27.5507 24.2582C27.3621 24.4898 27.1244 24.6761 26.8553 24.8041C26.5862 24.9322 26.2921 24.9989 25.9943 25L25.9908 25H17V30C17 30.5523 16.5523 31 16 31C15.4477 31 15 30.5523 15 30V25H6.00915L6.00564 25C5.70791 24.9989 5.41383 24.9322 5.14472 24.8041C4.87559 24.6761 4.63785 24.4898 4.44925 24.2582C4.26063 24.0266 4.12599 23.7557 4.05575 23.4648C3.98572 23.1749 4.0437 22.5812 4.0437 22.5812C4.49999 21 5.62913 19.216 7.00204 18.1948L8.35418 4.80004C8.40426 4.30393 8.63844 3.8459 9.00855 3.51402ZM8.99228 18.3922L10.3439 5.00297C10.3439 5.00297 10.3485 5 10.3533 5H21.6467C21.6515 5 21.6561 5.00297 21.6561 5.00297L23.0077 18.3922C23.0354 18.6833 23.1268 18.9644 23.2751 19.216C23.4243 19.469 23.6272 19.6857 23.869 19.8513L23.878 19.8574C24.9728 20.5897 25.7328 21.7154 25.999 22.9922L25.9997 22.9956C25.9997 22.9956 25.9979 22.9972 25.996 22.9981L25.9919 22.9995L25.9878 23H6.01223C6.00905 22.9999 6.00622 22.9992 6.004 22.9981C6.00211 22.9972 6.00032 22.9956 6.00032 22.9956L6.00104 22.9922C6.26723 21.7154 7.02723 20.5897 8.12199 19.8574L8.13097 19.8513C8.3728 19.6857 8.57573 19.469 8.7249 19.216C8.87324 18.9644 8.96464 18.6833 8.99228 18.3922Z" fill="black"/>
</svg>
