<svg width="32" height="32" viewBox="0 0 32 32" fill="none" xmlns="http://www.w3.org/2000/svg">
<path fill-rule="evenodd" clip-rule="evenodd" d="M6 5C4.89543 5 4 5.89543 4 7V13C4 14.1046 4.89543 15 6 15H26C27.1046 15 28 14.1046 28 13V7C28 5.89543 27.1046 5 26 5H6ZM6 7H26V13H6V7Z" fill="black"/>
<path fill-rule="evenodd" clip-rule="evenodd" d="M6 17C4.89543 17 4 17.8954 4 19V25C4 26.1046 4.89543 27 6 27H26C27.1046 27 28 26.1046 28 25V19C28 17.8954 27.1046 17 26 17H6ZM6 19H26V25H6V19Z" fill="black"/>
</svg>
