<svg width="32" height="32" viewBox="0 0 32 32" fill="none" xmlns="http://www.w3.org/2000/svg">
<path d="M22 20C21.3329 19.9998 20.6726 20.1334 20.0581 20.3931C19.4437 20.6527 18.8876 21.0331 18.4228 21.5116L12.6606 17.8073C13.1131 16.6449 13.1131 15.3551 12.6606 14.1927L18.4228 10.4884C19.2878 11.3732 20.4505 11.9054 21.6855 11.9818C22.9206 12.0581 24.14 11.6732 25.1074 10.9017C26.0748 10.1301 26.7213 9.02689 26.9216 7.8058C27.1218 6.58471 26.8616 5.33275 26.1913 4.29261C25.521 3.25247 24.4884 2.49823 23.2937 2.1761C22.099 1.85396 20.8272 1.98688 19.7249 2.54908C18.6226 3.11127 17.7682 4.06271 17.3275 5.21896C16.8868 6.37522 16.891 7.65392 17.3394 8.80722L11.5771 12.5115C10.8833 11.7991 9.99267 11.3097 9.01921 11.106C8.04575 10.9023 7.03367 10.9935 6.11234 11.368C5.191 11.7426 4.40229 12.3833 3.84702 13.2084C3.29175 14.0335 2.99516 15.0055 2.99516 16C2.99516 16.9945 3.29175 17.9665 3.84702 18.7916C4.40229 19.6167 5.191 20.2574 6.11234 20.632C7.03367 21.0065 8.04575 21.0977 9.01921 20.894C9.99267 20.6903 10.8833 20.2009 11.5771 19.4885L17.3394 23.1928C16.9536 24.1883 16.8967 25.2811 17.1769 26.3113C17.4571 27.3415 18.0598 28.2549 18.8967 28.9178C19.7335 29.5808 20.7606 29.9584 21.8276 29.9954C22.8946 30.0323 23.9454 29.7268 24.8262 29.1234C25.7069 28.52 26.3714 27.6505 26.7223 26.6422C27.0732 25.6339 27.092 24.5397 26.7761 23.5199C26.4602 22.5001 25.8261 21.6082 24.9667 20.9748C24.1073 20.3414 23.0676 19.9998 22 20Z" fill="black"/>
</svg>
