<svg width="32" height="32" viewBox="0 0 32 32" fill="none" xmlns="http://www.w3.org/2000/svg">
<path d="M27.7108 15.2928L22.4608 10.0428C22.2733 9.85531 22.0189 9.74996 21.7537 9.74997C21.4885 9.74998 21.2341 9.85535 21.0466 10.0429C20.859 10.2304 20.7537 10.4848 20.7537 10.75C20.7537 11.0153 20.8591 11.2696 21.0466 11.4571L24.5895 15H13C12.7348 15 12.4804 15.1053 12.2929 15.2929C12.1054 15.4804 12 15.7348 12 16C12 16.2652 12.1054 16.5196 12.2929 16.7071C12.4804 16.8946 12.7348 17 13 17H24.5895L21.0466 20.5428C20.9538 20.6357 20.8801 20.7459 20.8298 20.8673C20.7796 20.9886 20.7537 21.1186 20.7537 21.2499C20.7537 21.5152 20.859 21.7695 21.0466 21.9571C21.2341 22.1446 21.4885 22.25 21.7537 22.25C22.0189 22.25 22.2733 22.1447 22.4608 21.9571L27.7108 16.7071C27.8983 16.5196 28.0037 16.2652 28.0037 16C28.0037 15.7348 27.8983 15.4804 27.7108 15.2928Z" fill="black"/>
<path d="M15 26H6V6H15C15.2652 6 15.5196 5.89464 15.7071 5.70711C15.8946 5.51957 16 5.26522 16 5C16 4.73478 15.8946 4.48043 15.7071 4.29289C15.5196 4.10536 15.2652 4 15 4H6C5.46975 4.00061 4.9614 4.21151 4.58646 4.58646C4.21151 4.9614 4.00061 5.46975 4 6V26C4.00061 26.5302 4.21151 27.0386 4.58646 27.4135C4.9614 27.7885 5.46975 27.9994 6 28H15C15.2652 28 15.5196 27.8946 15.7071 27.7071C15.8946 27.5196 16 27.2652 16 27C16 26.7348 15.8946 26.4804 15.7071 26.2929C15.5196 26.1054 15.2652 26 15 26Z" fill="black"/>
</svg>
