<svg width="32" height="32" viewBox="0 0 32 32" fill="none" xmlns="http://www.w3.org/2000/svg">
<path fill-rule="evenodd" clip-rule="evenodd" d="M12.9999 6.99919C11.4144 6.99919 10.0752 8.05344 9.64488 9.49918L4.99995 9.49912C4.44767 9.49911 3.99995 9.94682 3.99994 10.4991C3.99993 11.0514 4.44764 11.4991 4.99993 11.4991L9.64488 11.4992C10.0751 12.9449 11.4144 13.9992 12.9999 13.9992C14.5855 13.9992 15.9247 12.9449 16.355 11.4992L26.9999 11.4991C27.5522 11.4991 27.9999 11.0514 27.9999 10.4991C27.9999 9.94683 27.5522 9.49912 26.9999 9.49912L16.355 9.49919C15.9247 8.05345 14.5854 6.99919 12.9999 6.99919ZM11.4999 10.4992C11.4999 9.67076 12.1715 8.99919 12.9999 8.99919C13.8284 8.99919 14.4999 9.67076 14.4999 10.4992C14.4999 11.3276 13.8284 11.9992 12.9999 11.9992C12.1715 11.9992 11.4999 11.3276 11.4999 10.4992Z" fill="black"/>
<path fill-rule="evenodd" clip-rule="evenodd" d="M20.9999 17.9992C19.4144 17.9992 18.0752 19.0534 17.6449 20.4992L4.99994 20.4992C4.44765 20.4992 3.99994 20.9469 3.99994 21.4992C3.99994 22.0515 4.44766 22.4992 4.99994 22.4992L17.6449 22.4992C18.0752 23.9449 19.4144 24.9992 20.9999 24.9992C22.5854 24.9992 23.9247 23.9449 24.355 22.4992L26.9999 22.4992C27.5522 22.4992 27.9999 22.0515 27.9999 21.4992C27.9999 20.9469 27.5522 20.4992 26.9999 20.4992L24.355 20.4992C23.9247 19.0534 22.5855 17.9992 20.9999 17.9992ZM19.4999 21.4992C19.4999 20.6708 20.1715 19.9992 20.9999 19.9992C21.8284 19.9992 22.4999 20.6708 22.4999 21.4992C22.4999 22.3276 21.8284 22.9992 20.9999 22.9992C20.1715 22.9992 19.4999 22.3276 19.4999 21.4992Z" fill="black"/>
</svg>
