<svg width="32" height="32" viewBox="0 0 32 32" fill="none" xmlns="http://www.w3.org/2000/svg">
<path fill-rule="evenodd" clip-rule="evenodd" d="M6 5C5.44772 5 5 5.44772 5 6V14C5 14.5523 5.44772 15 6 15H14C14.5523 15 15 14.5523 15 14V6C15 5.44772 14.5523 5 14 5H6ZM7 13V7H13V13H7Z" fill="black"/>
<path fill-rule="evenodd" clip-rule="evenodd" d="M18 5C17.4477 5 17 5.44772 17 6V14C17 14.5523 17.4477 15 18 15H26C26.5523 15 27 14.5523 27 14V6C27 5.44772 26.5523 5 26 5H18ZM19 13V7H25V13H19Z" fill="black"/>
<path fill-rule="evenodd" clip-rule="evenodd" d="M6 17C5.44772 17 5 17.4477 5 18V26C5 26.5523 5.44772 27 6 27H14C14.5523 27 15 26.5523 15 26V18C15 17.4477 14.5523 17 14 17H6ZM7 25V19H13V25H7Z" fill="black"/>
<path fill-rule="evenodd" clip-rule="evenodd" d="M18 17C17.4477 17 17 17.4477 17 18V26C17 26.5523 17.4477 27 18 27H26C26.5523 27 27 26.5523 27 26V18C27 17.4477 26.5523 17 26 17H18ZM19 25V19H25V25H19Z" fill="black"/>
</svg>
