<svg width="32" height="32" viewBox="0 0 32 32" fill="none" xmlns="http://www.w3.org/2000/svg">
<path fill-rule="evenodd" clip-rule="evenodd" d="M16 2.00001C15.5861 2.00001 15.182 2.12591 14.8414 2.36101C14.5032 2.5944 14.2434 2.92444 14.096 3.30784L11.3448 10.236L11.342 10.2432C11.3384 10.2525 11.3323 10.2605 11.3243 10.2664C11.3167 10.272 11.3076 10.2755 11.2982 10.2764L3.92049 10.7552C2.01719 10.8787 1.3496 13.2687 2.75057 14.4347L8.3992 19.1362L8.4003 19.1371C8.41337 19.1485 8.42309 19.1632 8.42837 19.1797C8.43379 19.1967 8.43432 19.2149 8.42988 19.2321L8.42923 19.2347L6.74 25.8797C6.24955 27.809 8.32807 29.5367 10.1251 28.3982L15.9838 24.6863L15.9856 24.6852C15.9873 24.6841 15.989 24.6832 15.9909 24.6826C15.9938 24.6815 15.9969 24.681 16 24.681C16.0033 24.681 16.0065 24.6816 16.0095 24.6827C16.0112 24.6834 16.0128 24.6842 16.0144 24.6852L16.5514 23.8416L16.0162 24.6863L22.3206 28.6805C23.9565 29.717 25.8349 28.1412 25.3923 26.4L23.5708 19.2347L23.5701 19.2321C23.5657 19.2148 23.5662 19.1967 23.5716 19.1797C23.5769 19.1632 23.5866 19.1484 23.5997 19.1371L23.6008 19.1362L29.2494 14.4347C30.6504 13.2687 29.9828 10.8787 28.0795 10.7552L20.703 10.2765L20.7018 10.2764C20.6924 10.2755 20.6833 10.272 20.6757 10.2664C20.6677 10.2605 20.6616 10.2525 20.658 10.2432L20.6552 10.236L17.904 3.30784C17.7566 2.92444 17.4968 2.5944 17.1586 2.36101C16.818 2.12591 16.4139 2.00001 16 2.00001ZM17.0884 22.998L17.0874 22.9973C16.7623 22.7907 16.3852 22.681 16 22.681C15.6148 22.681 15.2377 22.7907 14.9126 22.9973L14.9116 22.998L9.05472 26.7087C8.99352 26.7475 8.94898 26.7522 8.91683 26.75C8.87837 26.7473 8.83066 26.7318 8.78384 26.6962C8.69281 26.6271 8.6416 26.517 8.67835 26.3724L10.3669 19.73L10.3673 19.7285C10.465 19.3471 10.4533 18.9458 10.3334 18.5707C10.2133 18.1951 9.98969 17.8611 9.68821 17.607L9.68343 17.6029L4.03002 12.8975C4.01701 12.8867 4.01136 12.8788 4.00891 12.8749C4.00625 12.8707 4.00421 12.8662 4.00268 12.8603C3.9992 12.8472 3.99797 12.8244 4.0062 12.7979C4.01446 12.7714 4.02679 12.7582 4.03056 12.7551C4.03188 12.7539 4.03212 12.754 4.03214 12.754L4.03595 12.7528C4.03837 12.7523 4.04291 12.7514 4.05002 12.751L11.433 12.2718L11.4395 12.2714C11.8273 12.2437 12.1993 12.1064 12.5122 11.8754C12.8237 11.6454 13.0639 11.3319 13.2048 10.9712L15.9572 4.04005L15.9627 4.02573C15.9656 4.01816 15.9707 4.01165 15.9774 4.00706C15.984 4.00247 15.9919 4.00001 16 4.00001C16.0081 4.00001 16.016 4.00247 16.0226 4.00706C16.0293 4.01165 16.0344 4.01816 16.0373 4.02573L16.0428 4.04005L18.7952 10.9712C18.9361 11.3319 19.1763 11.6454 19.4879 11.8754C19.8007 12.1064 20.1727 12.2437 20.5605 12.2714L20.567 12.2718L27.95 12.751C27.9571 12.7514 27.9616 12.7523 27.9641 12.7528C27.9655 12.7532 27.9665 12.7535 27.9671 12.7537C27.9675 12.7538 27.967 12.7536 27.9671 12.7537C27.9671 12.7537 27.9679 12.754 27.9681 12.7541C27.9684 12.7542 27.9688 12.7545 27.9694 12.7551C27.9732 12.7582 27.9855 12.7714 27.9938 12.7979C28.002 12.8244 28.0008 12.8472 27.9973 12.8603C27.9958 12.8662 27.9937 12.8707 27.9911 12.8749C27.9886 12.8788 27.983 12.8867 27.97 12.8975L22.3166 17.6029L22.3118 17.607C22.0103 17.8611 21.7867 18.1951 21.6666 18.5707C21.5467 18.9459 21.535 19.3472 21.6328 19.7287L21.6331 19.73L23.4539 26.8927C23.4591 26.9132 23.4594 26.9264 23.459 26.9335C23.4586 26.9409 23.4572 26.9468 23.4552 26.952C23.4509 26.9636 23.4415 26.9776 23.4268 26.9887C23.4174 26.9958 23.4103 26.9985 23.407 26.9995L23.4053 26.9989C23.4026 26.9977 23.3978 26.9954 23.391 26.9911L17.0884 22.998Z" fill="black"/>
</svg>
