<svg width="22" height="22" viewBox="0 0 22 22" fill="none" xmlns="http://www.w3.org/2000/svg">
<path fill-rule="evenodd" clip-rule="evenodd" d="M11.0001 1.37501C10.7155 1.37501 10.4377 1.46157 10.2035 1.62319C9.97099 1.78365 9.79241 2.01056 9.69107 2.27415L7.79962 7.03728L7.79768 7.04223C7.79522 7.04858 7.791 7.05409 7.78552 7.05814C7.78026 7.06202 7.77404 7.0644 7.76754 7.06501L2.69539 7.39419C1.38688 7.47912 0.927906 9.12222 1.89107 9.92388L5.77451 13.1561L5.77526 13.1567C5.78425 13.1646 5.79093 13.1747 5.79456 13.1861C5.79829 13.1977 5.79865 13.2102 5.7956 13.2221L5.79515 13.2238L4.63381 17.7923C4.29662 19.1187 5.7256 20.3065 6.96106 19.5237L10.9889 16.9718L10.9902 16.9711C10.9913 16.9703 10.9925 16.9697 10.9938 16.9693C10.9958 16.9686 10.9979 16.9682 11.0001 16.9682C11.0023 16.9682 11.0045 16.9686 11.0066 16.9694C11.0078 16.9698 11.0089 16.9704 11.0099 16.9711L11.3791 16.3911L11.0112 16.9718L15.3455 19.7179C16.4701 20.4304 17.7615 19.3471 17.4572 18.15L16.205 13.2238L16.2045 13.2221C16.2015 13.2102 16.2018 13.1977 16.2056 13.1861C16.2092 13.1747 16.2159 13.1646 16.2249 13.1567L16.2256 13.1561L20.109 9.92388C21.0722 9.12221 20.6132 7.47912 19.3047 7.39419L14.2334 7.06508L14.2326 7.06501C14.2261 7.0644 14.2199 7.06202 14.2146 7.05814C14.2091 7.05409 14.2049 7.04857 14.2024 7.04223L14.2005 7.03728L12.309 2.27414C12.2077 2.01056 12.0291 1.78365 11.7966 1.62319C11.5624 1.46157 11.2846 1.37501 11.0001 1.37501ZM11.7483 15.8111L11.7476 15.8107C11.5242 15.6686 11.2649 15.5932 11.0001 15.5932C10.7353 15.5932 10.476 15.6686 10.2525 15.8107L10.2518 15.8111L6.22517 18.3622C6.1831 18.3889 6.15248 18.3922 6.13037 18.3906C6.10393 18.3888 6.07113 18.3781 6.03895 18.3537C5.97636 18.3062 5.94116 18.2304 5.96642 18.131L7.12732 13.5644L7.12758 13.5633C7.19477 13.3011 7.1867 13.0252 7.10426 12.7674C7.02171 12.5091 6.86796 12.2795 6.6607 12.1048L6.65741 12.102L2.77069 8.86705C2.76175 8.8596 2.75787 8.85418 2.75618 8.85151C2.75435 8.84862 2.75295 8.8455 2.75189 8.84149C2.74951 8.83243 2.74866 8.8168 2.75432 8.79859C2.76 8.78033 2.76847 8.7713 2.77106 8.76911C2.77197 8.76834 2.77214 8.76835 2.77215 8.76835L2.77477 8.76758C2.77643 8.7672 2.77956 8.76662 2.78444 8.76631L7.86025 8.43689L7.86471 8.43658C8.13135 8.41753 8.38709 8.32313 8.60216 8.16436C8.81638 8.00622 8.98146 7.7907 9.07836 7.54273L10.9706 2.77753L10.9744 2.76769C10.9764 2.76249 10.9799 2.75802 10.9845 2.75486C10.9891 2.7517 10.9945 2.75001 11.0001 2.75001C11.0056 2.75001 11.011 2.7517 11.0156 2.75486C11.0202 2.75801 11.0237 2.76249 11.0257 2.76769L11.0295 2.77753L12.9218 7.54273C13.0187 7.7907 13.1837 8.00622 13.398 8.16436C13.613 8.32313 13.8688 8.41753 14.1354 8.43658L14.1399 8.43689L19.2157 8.76631C19.2206 8.76662 19.2237 8.7672 19.2253 8.76758C19.2263 8.76781 19.227 8.76802 19.2275 8.76816C19.2277 8.76825 19.2274 8.76814 19.2275 8.76816C19.2275 8.76816 19.228 8.76835 19.2281 8.76843C19.2283 8.76852 19.2286 8.76871 19.229 8.76911C19.2316 8.7713 19.2401 8.78033 19.2458 8.79859C19.2515 8.8168 19.2506 8.83243 19.2482 8.84149C19.2472 8.8455 19.2458 8.84862 19.2439 8.85151C19.2422 8.85418 19.2384 8.8596 19.2294 8.86705L15.3427 12.102L15.3394 12.1048C15.1321 12.2795 14.9784 12.5091 14.8959 12.7674C14.8134 13.0253 14.8053 13.3012 14.8726 13.5635L14.8728 13.5644L16.1246 18.4887C16.1282 18.5028 16.1284 18.5119 16.1281 18.5168C16.1278 18.5219 16.1269 18.5259 16.1255 18.5295C16.1226 18.5375 16.1161 18.5471 16.106 18.5548C16.0995 18.5596 16.0946 18.5615 16.0923 18.5622L16.0912 18.5617C16.0894 18.5609 16.0861 18.5593 16.0814 18.5564L11.7483 15.8111Z" fill="#808080"/>
</svg>
