<svg width="80" height="80" viewBox="0 0 80 80" fill="none" xmlns="http://www.w3.org/2000/svg">
<path d="M38.0558 1.90008C39.2327 1.11387 40.7673 1.11387 41.9442 1.90008L45.3682 4.18741C46.3603 4.85018 47.5751 5.09181 48.7453 4.85916L52.784 4.05625C54.1722 3.78028 55.59 4.36753 56.3764 5.54427L58.6644 8.9678C59.3274 9.9598 60.3572 10.6479 61.5274 10.8808L65.566 11.6845C66.9541 11.9608 68.0392 13.0459 68.3155 14.434L69.1192 18.4726C69.3521 19.6428 70.0402 20.6726 71.0322 21.3355L74.4557 23.6236C75.6325 24.41 76.2197 25.8278 75.9437 27.216L75.1408 31.2547C74.9082 32.4249 75.1498 33.6397 75.8126 34.6318L78.0999 38.0558C78.8861 39.2327 78.8861 40.7673 78.0999 41.9442L75.8126 45.3682C75.1498 46.3603 74.9082 47.5751 75.1408 48.7453L75.9437 52.784C76.2197 54.1722 75.6325 55.59 74.4557 56.3764L71.0322 58.6644C70.0402 59.3274 69.3521 60.3572 69.1192 61.5274L68.3155 65.566C68.0392 66.9541 66.9541 68.0392 65.566 68.3155L61.5274 69.1192C60.3572 69.3521 59.3274 70.0402 58.6644 71.0322L56.3764 74.4557C55.59 75.6325 54.1722 76.2197 52.784 75.9437L48.7453 75.1408C47.5751 74.9082 46.3603 75.1498 45.3682 75.8126L41.9442 78.0999C40.7673 78.8861 39.2327 78.8861 38.0558 78.0999L34.6318 75.8126C33.6397 75.1498 32.4249 74.9082 31.2547 75.1408L27.216 75.9437C25.8278 76.2197 24.41 75.6325 23.6236 74.4557L21.3356 71.0322C20.6726 70.0402 19.6428 69.3521 18.4726 69.1192L14.434 68.3155C13.0459 68.0392 11.9608 66.9541 11.6845 65.566L10.8808 61.5274C10.6479 60.3572 9.9598 59.3274 8.9678 58.6644L5.54428 56.3764C4.36753 55.59 3.78028 54.1722 4.05625 52.784L4.85916 48.7453C5.09181 47.5751 4.85018 46.3603 4.18741 45.3682L1.90008 41.9442C1.11387 40.7673 1.11387 39.2327 1.90008 38.0558L4.18741 34.6318C4.85018 33.6397 5.09181 32.4249 4.85916 31.2547L4.05625 27.216C3.78028 25.8278 4.36753 24.41 5.54427 23.6236L8.9678 21.3356C9.9598 20.6726 10.6479 19.6428 10.8808 18.4726L11.6845 14.434C11.9608 13.0459 13.0459 11.9608 14.434 11.6845L18.4726 10.8808C19.6428 10.6479 20.6726 9.9598 21.3356 8.9678L23.6236 5.54427C24.41 4.36753 25.8278 3.78028 27.216 4.05625L31.2547 4.85916C32.4249 5.09181 33.6397 4.85018 34.6318 4.18741L38.0558 1.90008Z" fill="white" stroke="#E24343"/>
<path d="M49.512 34.8875C49.8293 34.5702 49.8293 34.0558 49.512 33.7385C49.1947 33.4212 48.6803 33.4212 48.363 33.7385L37.5625 44.5385L32.4495 39.4259C32.1322 39.1087 31.6177 39.1087 31.3005 39.426C30.9832 39.7433 30.9832 40.2578 31.3005 40.575L36.988 46.262C37.3053 46.5793 37.8197 46.5793 38.137 46.262L49.512 34.8875Z" fill="#E24343"/>
</svg>
