<svg width="32" height="32" viewBox="0 0 32 32" fill="none" xmlns="http://www.w3.org/2000/svg">
<path fill-rule="evenodd" clip-rule="evenodd" d="M12 4C12 3.44772 11.5523 3 11 3C10.4477 3 10 3.44772 10 4V6H3C2.44772 6 2 6.44772 2 7C2 7.55228 2.44772 8 3 8H13.9545C13.7313 10.4454 12.6948 12.7539 11.0006 14.5493C9.95259 13.4402 9.14107 12.1193 8.62619 10.6661C8.44174 10.1456 7.87021 9.87308 7.34964 10.0575C6.82906 10.242 6.55657 10.8135 6.74102 11.3341C7.34188 13.0299 8.28459 14.5733 9.50065 15.8737C7.62647 17.2467 5.35207 18 3 18C2.44772 18 2 18.4477 2 19C2 19.5523 2.44772 20 3 20C5.91455 20 8.72818 19.0213 11.0015 17.2458C11.1626 17.3715 11.327 17.4936 11.4944 17.6119C13.26 18.8594 15.3015 19.6423 17.4315 19.901L16.1146 22.5348C16.1081 22.5471 16.1019 22.5596 16.0959 22.5722L14.1056 26.5528C13.8586 27.0468 14.0588 27.6474 14.5528 27.8944C15.0468 28.1414 15.6474 27.9412 15.8944 27.4472L17.618 24H26.382L28.1056 27.4472C28.3526 27.9412 28.9532 28.1414 29.4472 27.8944C29.9412 27.6474 30.1414 27.0468 29.8944 26.5528L27.9041 22.5722C27.8981 22.5596 27.8919 22.5471 27.8854 22.5348L22.8944 12.5528C22.725 12.214 22.3788 12 22 12C21.6212 12 21.275 12.214 21.1056 12.5528L18.3924 17.9791C16.332 17.8653 14.3405 17.174 12.6486 15.9785C12.5992 15.9436 12.5501 15.9083 12.5014 15.8727C14.518 13.7133 15.7352 10.935 15.9615 8H19C19.5523 8 20 7.55228 20 7C20 6.44772 19.5523 6 19 6H12V4ZM22 15.2361L25.382 22H18.618L22 15.2361Z" fill="black"/>
</svg>
