<svg width="20" height="20" viewBox="0 0 20 20" fill="none" xmlns="http://www.w3.org/2000/svg">
<path fill-rule="evenodd" clip-rule="evenodd" d="M2.5248 9.2799C1.76098 7.19608 1.66787 4.92563 2.2584 2.78633C2.2985 2.63595 2.39343 2.50552 2.52509 2.42116C2.74315 2.28144 3.02482 2.29065 3.23326 2.44436C3.29729 2.49158 3.35034 2.54943 3.39111 2.61415C4.13907 3.76376 5.13022 4.73526 6.29464 5.46008C7.24185 6.04969 8.2849 6.46435 9.37407 6.68661C9.39024 6.09419 9.54672 5.50967 9.83607 4.98295C10.2675 4.19767 10.9657 3.59275 11.8045 3.27769C12.6433 2.96264 13.5671 2.95825 14.4088 3.26532C15.1257 3.52683 15.7426 3.99952 16.181 4.61651C16.985 4.56245 17.7792 4.40547 18.5441 4.14906C18.5573 4.14447 18.5706 4.14033 18.5841 4.13663C18.7574 4.08868 18.9357 4.119 19.0793 4.2078C19.1449 4.24842 19.2033 4.30128 19.2506 4.36449C19.298 4.42768 19.3322 4.4986 19.3527 4.57305C19.4007 4.74636 19.3704 4.9247 19.2816 5.06825C19.2741 5.08023 19.2663 5.09197 19.2581 5.10344C18.5954 6.0508 17.7825 6.88284 16.8522 7.56709C16.7404 9.27313 16.2185 10.9287 15.3289 12.3923C14.3853 13.9446 13.0596 15.2292 11.4783 16.1234C9.897 17.0176 8.1129 17.4915 6.29631 17.5C4.47973 17.5084 2.69129 17.0511 1.10174 16.1717C0.95659 16.0914 0.849319 15.9567 0.803555 15.7972C0.75779 15.6378 0.777286 15.4667 0.857749 15.3216L0.858256 15.3207C0.966925 15.1248 1.17214 15.0021 1.39615 14.999C2.92968 14.9777 4.42956 14.5787 5.76513 13.8433C4.3016 12.6423 3.1803 11.0683 2.5248 9.2799ZM10.9316 5.58481C10.6468 6.10339 10.5551 6.70601 10.6725 7.28554C10.6816 7.32382 10.6872 7.36343 10.6889 7.40401C10.7019 7.7102 10.491 7.98066 10.1909 8.04264C10.117 8.05791 10.0432 8.05948 9.97259 8.04901C8.43228 7.86271 6.95139 7.34127 5.63407 6.52128C4.71938 5.95191 3.89903 5.24824 3.1994 4.43613C3.01125 5.91961 3.17933 7.4335 3.69844 8.84971C4.37147 10.6859 5.60089 12.266 7.21498 13.3697C7.25185 13.3936 7.28664 13.4218 7.31864 13.4541C7.53089 13.6681 7.56015 14.0031 7.38823 14.2507C7.34013 14.3199 7.28045 14.3766 7.21368 14.4196C6.17926 15.123 5.03381 15.6336 3.83247 15.934C4.631 16.1467 5.45739 16.2538 6.29049 16.25C7.89343 16.2425 9.46769 15.8243 10.863 15.0353C12.2583 14.2463 13.4281 13.1128 14.2607 11.743C15.0933 10.3733 15.5609 8.81296 15.6189 7.21105C15.6262 7.00738 15.7317 6.82456 15.8947 6.71495C16.2998 6.43444 16.6812 6.12293 17.0358 5.78364C16.6489 5.83808 16.2587 5.8713 15.8672 5.88299C15.7012 5.88794 15.5401 5.82668 15.4194 5.71272C15.37 5.66603 15.329 5.61206 15.2975 5.55321C15.0045 5.03769 14.5377 4.64293 13.9804 4.43962C13.4192 4.23488 12.8033 4.23781 12.2441 4.44787C11.6848 4.65793 11.2193 5.06124 10.9316 5.58481Z" fill="#4D4D4D"/>
</svg>
