<svg width="32" height="32" viewBox="0 0 32 32" fill="none" xmlns="http://www.w3.org/2000/svg">
<path d="M30.8015 6.98384C30.6755 6.8152 30.4994 6.69066 30.2984 6.62797C30.0974 6.56528 29.8818 6.56764 29.6822 6.63471C28.4555 7.0472 27.1808 7.2999 25.8895 7.38654C25.1605 6.36026 24.1272 5.58926 22.9358 5.18267C21.7444 4.77608 20.4552 4.75451 19.2509 5.121C18.0466 5.48749 16.988 6.22348 16.225 7.2248C15.4621 8.22611 15.0334 9.44203 14.9996 10.7004C13.0483 10.3043 11.1958 9.52268 9.55056 8.40136C7.9053 7.28005 6.5004 5.84162 5.41822 4.17036C5.31321 4.00901 5.16386 3.8814 4.98811 3.80285C4.81236 3.7243 4.61767 3.69815 4.42741 3.72754C4.23716 3.75693 4.05944 3.84061 3.91557 3.96853C3.77171 4.09644 3.66783 4.26317 3.6164 4.44868C2.73759 7.62529 2.79966 10.9887 3.79508 14.1307C4.7905 17.2727 6.67647 20.0583 9.22413 22.1494C7.08039 23.3292 4.67958 23.9641 2.23286 23.9984C2.01243 24.0017 1.79927 24.0777 1.62647 24.2146C1.45367 24.3515 1.3309 24.5416 1.27722 24.7554C1.22355 24.9692 1.24196 25.1948 1.32962 25.3971C1.41727 25.5994 1.56925 25.767 1.76197 25.8741C4.26832 27.2616 7.08459 27.9933 9.94934 28.0014C12.8141 28.0095 15.6344 27.2936 18.1486 25.9203C20.6627 24.5469 22.7891 22.5606 24.3303 20.1458C25.8715 17.731 26.7777 14.9658 26.9645 12.1072C28.4569 11.0097 29.7593 9.67501 30.8198 8.1562C30.9406 7.98374 31.0038 7.77756 31.0006 7.56705C30.9973 7.35654 30.9276 7.15244 30.8015 6.98384Z" fill="black"/>
</svg>
