<svg width="32" height="32" viewBox="0 0 32 32" fill="none" xmlns="http://www.w3.org/2000/svg">
<path fill-rule="evenodd" clip-rule="evenodd" d="M4.04002 14.8478C2.81792 11.5137 2.66894 7.88101 3.61378 4.45814C3.67795 4.21752 3.82984 4.00884 4.04049 3.87387C4.38938 3.6503 4.84006 3.66504 5.17356 3.91098C5.27601 3.98653 5.36089 4.07908 5.42612 4.18265C6.62287 6.02202 8.2087 7.57642 10.0718 8.73612C11.5873 9.6795 13.2562 10.343 14.9989 10.6986C15.0247 9.7507 15.2751 8.81547 15.7381 7.97273C16.4283 6.71627 17.5455 5.74841 18.8876 5.24431C20.2296 4.74022 21.7077 4.7332 23.0545 5.22452C24.2014 5.64293 25.1885 6.39923 25.8899 7.38642C27.1763 7.29993 28.4471 7.04876 29.6709 6.63851C29.692 6.63116 29.7134 6.62452 29.7349 6.61861C30.0122 6.5419 30.2975 6.59041 30.5272 6.73249C30.6323 6.79748 30.7257 6.88206 30.8014 6.98319C30.8771 7.08429 30.9319 7.19776 30.9647 7.31688C31.0414 7.59418 30.9929 7.87952 30.8508 8.10921C30.839 8.12837 30.8265 8.14715 30.8133 8.1655C29.7529 9.68129 28.4524 11.0125 26.9639 12.1073C26.785 14.837 25.9499 17.4859 24.5265 19.8277C23.0168 22.3114 20.8957 24.3667 18.3656 25.7974C15.8355 27.2281 12.981 27.9864 10.0744 27.9999C7.16791 28.0135 4.30642 27.2818 1.76313 25.8747C1.53089 25.7462 1.35926 25.5307 1.28604 25.2756C1.21281 25.0205 1.24401 24.7467 1.37275 24.5146L1.37356 24.5132C1.54743 24.1997 1.87577 24.0033 2.23419 23.9983C4.68784 23.9643 7.08764 23.326 9.22456 22.1494C6.88291 20.2276 5.08883 17.7092 4.04002 14.8478ZM17.491 8.93571C17.0352 9.76543 16.8884 10.7296 17.0764 11.6569C17.0909 11.7181 17.0999 11.7815 17.1026 11.8464C17.1235 12.3363 16.786 12.7691 16.3058 12.8682C16.1875 12.8927 16.0694 12.8952 15.9565 12.8784C13.492 12.5803 11.1226 11.746 9.01486 10.434C7.55136 9.52306 6.2388 8.39718 5.1194 7.09781C4.81835 9.47139 5.08728 11.8936 5.91785 14.1595C6.9947 17.0974 8.96177 19.6256 11.5443 21.3916C11.6033 21.4298 11.659 21.4749 11.7102 21.5265C12.0498 21.8689 12.0966 22.4049 11.8215 22.8011C11.7446 22.9119 11.6491 23.0025 11.5422 23.0713C9.88717 24.1967 8.05445 25.0137 6.1323 25.4943C7.40995 25.8347 8.73217 26.0062 10.0651 26C12.6298 25.988 15.1487 25.3189 17.3812 24.0565C19.6137 22.794 21.4853 20.9805 22.8175 18.7888C24.1496 16.5972 24.8978 14.1007 24.9906 11.5377C25.0023 11.2118 25.1711 10.9193 25.4319 10.7439C26.08 10.2951 26.6903 9.7967 27.2577 9.25384C26.6386 9.34094 26.0143 9.39409 25.3878 9.41278C25.1223 9.42071 24.8646 9.32269 24.6715 9.14036C24.5923 9.06565 24.5267 8.97931 24.4763 8.88514C24.0075 8.06031 23.2607 7.42869 22.369 7.10339C21.4711 6.77581 20.4856 6.7805 19.5908 7.11659C18.6961 7.45268 17.9512 8.09798 17.491 8.93571Z" fill="black"/>
</svg>
