<svg width="32" height="32" viewBox="0 0 32 32" fill="none" xmlns="http://www.w3.org/2000/svg">
<path fill-rule="evenodd" clip-rule="evenodd" d="M11.0941 6.16226C13.177 5.11961 15.5373 4.76587 17.8343 5.1521C18.379 5.24368 18.8947 4.8764 18.9863 4.33176C19.0779 3.78712 18.7106 3.27137 18.166 3.17979C15.4508 2.72325 12.6608 3.14139 10.1988 4.37382C7.7368 5.60625 5.73014 7.58921 4.46854 10.0364C3.20694 12.4836 2.75569 15.2684 3.17993 17.9888C3.60417 20.7092 4.88196 23.2244 6.82881 25.1712C6.93083 25.2732 7.03441 25.3734 7.13949 25.4717C7.23066 25.6105 7.35763 25.7284 7.51541 25.81C9.3511 27.398 11.6006 28.4441 14.0112 28.8201C16.7316 29.2443 19.5164 28.7931 21.9636 27.5315C22.9016 27.0479 23.7714 26.4549 24.5569 25.7687C24.656 25.7066 24.741 25.6293 24.8103 25.5414C25.9608 24.4819 26.9176 23.2168 27.6262 21.8012C28.8586 19.3391 29.2768 16.5492 28.8202 13.834C28.7286 13.2894 28.2129 12.9221 27.6682 13.0137C27.1236 13.1053 26.7563 13.621 26.8479 14.1657C27.2341 16.4627 26.8804 18.823 25.8378 20.9059C25.4022 21.7761 24.8557 22.5791 24.2161 23.2969C23.4294 22.1642 22.4139 21.2021 21.2299 20.476C20.7444 20.1783 20.2365 19.9238 19.712 19.7142C21.1055 18.6155 22 16.9122 22 15C22 11.6863 19.3137 9 16 9C12.6863 9 10 11.6863 10 15C10 16.9122 10.8945 18.6155 12.288 19.7142C11.7634 19.9238 11.2555 20.1783 10.7701 20.476C9.59154 21.1988 8.57998 22.1553 7.79476 23.2813C6.39959 21.7094 5.4813 19.7663 5.15604 17.6806C4.79713 15.3792 5.17889 13.0232 6.24622 10.9529C7.31354 8.8825 9.01119 7.2049 11.0941 6.16226ZM14.3194 26.844C12.4728 26.556 10.738 25.8032 9.27368 24.6661C9.92212 23.6605 10.7898 22.8101 11.8157 22.1809C13.0748 21.4087 14.523 21 16 21C17.477 21 18.9252 21.4087 20.1843 22.1809C21.2145 22.8127 22.0853 23.6678 22.7346 24.679C22.2086 25.0857 21.6442 25.446 21.0472 25.7538C18.9768 26.8211 16.6208 27.2029 14.3194 26.844ZM20 15C20 17.2091 18.2091 19 16 19C13.7909 19 12 17.2091 12 15C12 12.7909 13.7909 11 16 11C18.2091 11 20 12.7909 20 15Z" fill="black"/>
<path fill-rule="evenodd" clip-rule="evenodd" d="M24.6251 3C22.623 3 21 4.62293 21 6.62499C21 8.62705 22.623 10.25 24.6251 10.25C25.2626 10.25 25.8617 10.0854 26.3822 9.79644L27.2929 10.7071C27.6834 11.0976 28.3166 11.0976 28.7071 10.7071C29.0976 10.3166 29.0976 9.6834 28.7071 9.29289L27.7965 8.3823C28.0855 7.86177 28.2502 7.26261 28.2502 6.62499C28.2502 4.62293 26.6271 3 24.6251 3ZM23 6.62499C23 5.72757 23.7275 5 24.6251 5C25.5226 5 26.2502 5.72757 26.2502 6.62499C26.2502 7.52241 25.5226 8.24998 24.6251 8.24998C23.7275 8.24998 23 7.52241 23 6.62499Z" fill="black"/>
</svg>
