<svg width="32" height="32" viewBox="0 0 32 32" fill="none" xmlns="http://www.w3.org/2000/svg">
<path fill-rule="evenodd" clip-rule="evenodd" d="M29 16C29 19.831 27.3429 23.2749 24.7064 25.6541C24.6986 25.6613 24.6907 25.6684 24.6827 25.6755C22.3808 27.7425 19.3373 29 16 29C12.6633 29 9.6202 27.7429 7.31849 25.6765C7.30954 25.6687 7.30075 25.6608 7.29212 25.6527C4.65647 23.2736 3 19.8302 3 16C3 8.8203 8.8203 3 16 3C23.1797 3 29 8.8203 29 16ZM5 16C5 9.92487 9.92487 5 16 5C22.0751 5 27 9.92487 27 16C27 18.8044 25.9505 21.3637 24.2229 23.3066C23.4352 22.1697 22.4173 21.2042 21.2299 20.476C20.7444 20.1783 20.2365 19.9238 19.712 19.7142C21.1055 18.6155 22 16.9122 22 15C22 11.6863 19.3137 9 16 9C12.6863 9 10 11.6863 10 15C10 16.9122 10.8945 18.6155 12.288 19.7142C11.7634 19.9238 11.2555 20.1783 10.7701 20.476C9.5827 21.2042 8.56481 22.1697 7.77712 23.3066C6.04948 21.3637 5 18.8044 5 16ZM20.1843 22.1809C21.2188 22.8154 22.0926 23.675 22.7428 24.6917C20.8805 26.1385 18.5408 27 16 27C13.4592 27 11.1195 26.1385 9.25724 24.6917C9.90742 23.675 10.7811 22.8154 11.8157 22.1809C13.0748 21.4087 14.523 21 16 21C17.477 21 18.9252 21.4087 20.1843 22.1809ZM20 15C20 17.2091 18.2091 19 16 19C13.7909 19 12 17.2091 12 15C12 12.7909 13.7909 11 16 11C18.2091 11 20 12.7909 20 15Z" fill="black"/>
</svg>
