<svg width="32" height="32" viewBox="0 0 32 32" fill="none" xmlns="http://www.w3.org/2000/svg">
<path d="M30.502 9.13513C30.3505 9.04722 30.1785 9.00063 30.0034 9.00003C29.8282 8.99943 29.656 9.04484 29.5039 9.13171L24 12.2768V11.5C23.9985 10.1744 23.4712 8.90349 22.5339 7.96614C21.5965 7.02879 20.3256 6.50152 19 6.5H3C2.46975 6.50061 1.9614 6.71151 1.58646 7.08646C1.21151 7.4614 1.00061 7.96975 1 8.5V20.5C1.00152 21.8256 1.52879 23.0965 2.46614 24.0339C3.40349 24.9712 4.67438 25.4985 6 25.5H22C22.5302 25.4994 23.0386 25.2885 23.4135 24.9135C23.7885 24.5386 23.9994 24.0302 24 23.5V19.7232L29.5039 22.8683C29.656 22.9552 29.8282 23.0006 30.0034 23C30.1785 22.9994 30.3505 22.9528 30.5019 22.8649C30.6534 22.777 30.7792 22.6508 30.8666 22.499C30.954 22.3472 31 22.1752 31 22V10C31 9.82485 30.954 9.65276 30.8666 9.50097C30.7792 9.34919 30.6535 9.22303 30.502 9.13513ZM29 20.2769L24 17.4197V14.5803L29 11.7231V20.2769Z" fill="black"/>
</svg>
