<svg width="26" height="26" viewBox="0 0 26 26" fill="none" xmlns="http://www.w3.org/2000/svg">
<path d="M6.26202 5.11298C5.94472 4.79567 5.43028 4.79567 5.11298 5.11298C4.79567 5.43028 4.79567 5.94472 5.11298 6.26202L11.851 13L5.11298 19.738C4.79567 20.0553 4.79567 20.5697 5.11298 20.887C5.43028 21.2043 5.94472 21.2043 6.26202 20.887L13 14.149L19.738 20.887C20.0553 21.2043 20.5697 21.2043 20.887 20.887C21.2043 20.5697 21.2043 20.0553 20.887 19.738L14.149 13L20.887 6.26202C21.2043 5.94472 21.2043 5.43028 20.887 5.11298C20.5697 4.79567 20.0553 4.79567 19.738 5.11298L13 11.851L6.26202 5.11298Z" fill="#808080"/>
</svg>
