<svg width="32" height="32" viewBox="0 0 32 32" fill="none" xmlns="http://www.w3.org/2000/svg">
<path d="M28.8342 8.34321C28.5885 6.79597 27.174 5.44392 25.6085 5.2646C19.22 4.5684 12.7747 4.56858 6.38624 5.26514C4.82642 5.44386 3.41187 6.79578 3.16492 8.34882C2.3884 13.422 2.38871 18.5839 3.16584 23.657C3.41181 25.2043 4.82642 26.5562 6.39149 26.7354C9.5825 27.0835 12.7901 27.2578 16 27.2576C19.2099 27.2578 22.4175 27.0835 25.6085 26.7354L25.6137 26.7349C27.1737 26.5563 28.5883 25.2044 28.8351 23.6512C29.6116 18.5781 29.6113 13.4163 28.8342 8.34321ZM20.5547 16.832L14.5547 20.832C14.4041 20.9324 14.2291 20.9901 14.0483 20.9988C13.8675 21.0076 13.6877 20.9671 13.5282 20.8817C13.3686 20.7963 13.2352 20.6691 13.1422 20.5139C13.0491 20.3586 13 20.181 13 20V12C13 11.819 13.0491 11.6414 13.1422 11.4861C13.2352 11.3309 13.3686 11.2038 13.5282 11.1184C13.6877 11.033 13.8675 10.9925 14.0483 11.0012C14.2291 11.0099 14.4041 11.0676 14.5547 11.168L20.5547 15.168C20.6917 15.2593 20.804 15.383 20.8817 15.5282C20.9594 15.6733 21 15.8354 21 16C21 16.1646 20.9594 16.3267 20.8817 16.4719C20.804 16.617 20.6917 16.7407 20.5547 16.832Z" fill="black"/>
</svg>
