<svg width="22" height="22" viewBox="0 0 22 22" fill="none" xmlns="http://www.w3.org/2000/svg">
<path d="M19.8235 5.73593C19.6546 4.6722 18.6821 3.74266 17.6058 3.61938C13.2137 3.14074 8.78261 3.14087 4.39052 3.61976C3.31815 3.74262 2.34565 4.67207 2.17587 5.73979C1.64201 9.22761 1.64222 12.7764 2.1765 16.2642C2.3456 17.3279 3.31815 18.2574 4.39413 18.3806C6.58795 18.6199 8.79316 18.7397 11 18.7396C13.2068 18.7397 15.412 18.6199 17.6058 18.3806L17.6094 18.3802C18.6819 18.2575 19.6545 17.328 19.8241 16.2602C20.358 12.7724 20.3578 9.22365 19.8235 5.73593ZM14.1313 11.572L10.0063 14.322C9.9028 14.391 9.78247 14.4306 9.65818 14.4367C9.53389 14.4427 9.4103 14.4148 9.30059 14.3561C9.19088 14.2974 9.09916 14.21 9.03521 14.1033C8.97127 13.9965 8.93749 13.8744 8.93749 13.75V8.24998C8.93749 8.12554 8.97127 8.00344 9.03521 7.89669C9.09916 7.78995 9.19088 7.70256 9.30059 7.64384C9.4103 7.58513 9.53389 7.55729 9.65818 7.5633C9.78247 7.56931 9.9028 7.60893 10.0063 7.67796L14.1313 10.428C14.2255 10.4907 14.3027 10.5758 14.3561 10.6756C14.4095 10.7754 14.4375 10.8868 14.4375 11C14.4375 11.1132 14.4095 11.2246 14.3561 11.3244C14.3027 11.4242 14.2255 11.5092 14.1313 11.572Z" fill="#808080"/>
</svg>
