<svg width="12" height="12" viewBox="0 0 12 12" fill="none" xmlns="http://www.w3.org/2000/svg">
<path d="M6 1.125C5.03582 1.125 4.09329 1.41091 3.2916 1.94659C2.48991 2.48226 1.86507 3.24363 1.49609 4.13442C1.12711 5.02521 1.03057 6.00541 1.21867 6.95107C1.40678 7.89672 1.87108 8.76536 2.55286 9.44715C3.23464 10.1289 4.10328 10.5932 5.04894 10.7813C5.99459 10.9694 6.97479 10.8729 7.86558 10.5039C8.75637 10.1349 9.51775 9.51009 10.0534 8.7084C10.5891 7.90671 10.875 6.96418 10.875 6C10.8735 4.70753 10.3594 3.46842 9.4455 2.5545C8.53158 1.64059 7.29247 1.12649 6 1.125ZM8.32178 5.14636L5.57154 7.77136C5.50161 7.83789 5.40878 7.875 5.31226 7.875C5.21574 7.875 5.12291 7.83789 5.05298 7.77136L3.67822 6.45886C3.6064 6.39006 3.56482 6.29557 3.56262 6.19614C3.56042 6.0967 3.59778 6.00046 3.66648 5.92855C3.73519 5.85664 3.82963 5.81494 3.92906 5.81262C4.02849 5.81029 4.12478 5.84752 4.19678 5.91614L5.31226 6.98145L7.80322 4.60364C7.87522 4.53502 7.97151 4.49779 8.07094 4.50012C8.17037 4.50244 8.26481 4.54414 8.33352 4.61605C8.40223 4.68796 8.43958 4.7842 8.43738 4.88364C8.43518 4.98307 8.3936 5.07756 8.32178 5.14636Z" fill="#E24343"/>
</svg>
